G04 #@! TF.GenerationSoftware,KiCad,Pcbnew,(5.1.8-0-10_14)*
G04 #@! TF.CreationDate,2021-06-15T12:35:27+09:00*
G04 #@! TF.ProjectId,3320VCF,33333230-5643-4462-9e6b-696361645f70,rev?*
G04 #@! TF.SameCoordinates,Original*
G04 #@! TF.FileFunction,Soldermask,Bot*
G04 #@! TF.FilePolarity,Negative*
%FSLAX46Y46*%
G04 Gerber Fmt 4.6, Leading zero omitted, Abs format (unit mm)*
G04 Created by KiCad (PCBNEW (5.1.8-0-10_14)) date 2021-06-15 12:35:27*
%MOMM*%
%LPD*%
G01*
G04 APERTURE LIST*
%ADD10C,3.200000*%
%ADD11C,1.600000*%
%ADD12O,1.600000X1.600000*%
%ADD13R,1.600000X1.600000*%
%ADD14R,1.700000X1.700000*%
%ADD15O,1.700000X1.700000*%
%ADD16O,2.000000X1.200000*%
%ADD17C,1.800000*%
G04 APERTURE END LIST*
D10*
X104140000Y-134620000D03*
D11*
X119380000Y-81280000D03*
D12*
X126880000Y-81280000D03*
D11*
X104140000Y-58420000D03*
D12*
X104140000Y-66040000D03*
D11*
X114300000Y-104140000D03*
D12*
X114300000Y-96520000D03*
X99060000Y-71120000D03*
D11*
X99060000Y-78740000D03*
X104140000Y-71120000D03*
D12*
X104140000Y-78740000D03*
D11*
X99060000Y-53340000D03*
D12*
X99060000Y-45720000D03*
X109220000Y-71120000D03*
D11*
X109220000Y-78740000D03*
X109220000Y-58420000D03*
D12*
X109220000Y-66040000D03*
D11*
X142240000Y-106680000D03*
D12*
X142240000Y-114300000D03*
X147320000Y-114300000D03*
D11*
X147320000Y-106680000D03*
X99060000Y-121920000D03*
D12*
X99060000Y-114300000D03*
X137160000Y-76200000D03*
D11*
X137160000Y-83820000D03*
X109220000Y-106680000D03*
D12*
X109220000Y-114300000D03*
D11*
X109220000Y-96520000D03*
D12*
X109220000Y-104140000D03*
D11*
X109220000Y-91440000D03*
D12*
X101600000Y-91440000D03*
X132080000Y-76200000D03*
D11*
X132080000Y-83820000D03*
D12*
X114300000Y-66040000D03*
D11*
X114300000Y-58420000D03*
X119380000Y-55880000D03*
D12*
X127000000Y-55880000D03*
D13*
X132080000Y-63500000D03*
D11*
X132080000Y-66000000D03*
D12*
X132080000Y-119380000D03*
D11*
X139700000Y-119380000D03*
X104140000Y-104140000D03*
D12*
X104140000Y-96520000D03*
X99060000Y-96520000D03*
D11*
X99060000Y-104140000D03*
D12*
X157480000Y-94100000D03*
D11*
X157480000Y-101600000D03*
X157480000Y-106680000D03*
D12*
X157480000Y-114180000D03*
X114300000Y-121800000D03*
D11*
X114300000Y-114300000D03*
X149860000Y-88900000D03*
D12*
X157360000Y-88900000D03*
X137160000Y-73660000D03*
D11*
X137160000Y-66040000D03*
D12*
X152400000Y-106680000D03*
D11*
X152400000Y-114300000D03*
X147320000Y-101600000D03*
D12*
X147320000Y-93980000D03*
X142240000Y-101600000D03*
D11*
X142240000Y-93980000D03*
D12*
X129540000Y-91440000D03*
D11*
X121920000Y-91440000D03*
D14*
X160020000Y-124460000D03*
D15*
X162560000Y-124460000D03*
X160020000Y-127000000D03*
X162560000Y-127000000D03*
X160020000Y-129540000D03*
X162560000Y-129540000D03*
X160020000Y-132080000D03*
X162560000Y-132080000D03*
X160020000Y-134620000D03*
X162560000Y-134620000D03*
D14*
X99060000Y-66040000D03*
X152400000Y-101600000D03*
X99060000Y-109220000D03*
X114300000Y-50800000D03*
D13*
X119380000Y-60960000D03*
D12*
X127000000Y-76200000D03*
X119380000Y-63500000D03*
X127000000Y-73660000D03*
X119380000Y-66040000D03*
X127000000Y-71120000D03*
X119380000Y-68580000D03*
X127000000Y-68580000D03*
X119380000Y-71120000D03*
X127000000Y-66040000D03*
X119380000Y-73660000D03*
X127000000Y-63500000D03*
X119380000Y-76200000D03*
X127000000Y-60960000D03*
D16*
X120650000Y-114300000D03*
X138430000Y-114300000D03*
X120650000Y-111760000D03*
X138430000Y-111760000D03*
X120650000Y-109220000D03*
X138430000Y-109220000D03*
X120650000Y-106680000D03*
X138430000Y-106680000D03*
X120650000Y-104140000D03*
X138430000Y-104140000D03*
X120650000Y-101600000D03*
X138430000Y-101600000D03*
X120650000Y-99060000D03*
X138430000Y-99060000D03*
X120650000Y-96520000D03*
X138430000Y-96520000D03*
X120650000Y-93980000D03*
X138430000Y-93980000D03*
D17*
X93980000Y-71120000D03*
X93980000Y-73620000D03*
X93980000Y-76120000D03*
X93980000Y-50720000D03*
X93980000Y-48220000D03*
X93980000Y-45720000D03*
X93980000Y-119300000D03*
X93980000Y-116800000D03*
X93980000Y-114300000D03*
X93980000Y-93980000D03*
X93980000Y-96480000D03*
X93980000Y-98980000D03*
D13*
X152400000Y-134620000D03*
D11*
X152400000Y-132120000D03*
X152400000Y-124369758D03*
D13*
X152400000Y-126869758D03*
M02*
