M48
; DRILL file {KiCad (5.1.8-0-10_14)} date Tuesday, June 15, 2021 at 12:35:35 PM
; FORMAT={3:3/ absolute / metric / suppress trailing zeros}
; #@! TF.CreationDate,2021-06-15T12:35:35+09:00
; #@! TF.GenerationSoftware,Kicad,Pcbnew,(5.1.8-0-10_14)
; #@! TF.FileFunction,Plated,1,2,PTH
FMAT,2
METRIC,LZ
T1C0.800
T2C1.000
%
G90
G05
T1
X13716Y-06604
X13716Y-07366
X10922Y-09652
X10922Y-10414
X13208Y-0635
X13208Y-066
X1143Y-09652
X1143Y-10414
X14732Y-10668
X14732Y-1143
X1143Y-1143
X1143Y-1218
X14986Y-0889
X15736Y-0889
X1524Y-13212
X1524Y-13462
X1016Y-09144
X10922Y-09144
X09906Y-04572
X09906Y-05334
X14732Y-09398
X14732Y-1016
X10922Y-10668
X10922Y-1143
X09906Y-1143
X09906Y-12192
X13208Y-0762
X13208Y-08382
X14224Y-09398
X14224Y-1016
X10922Y-05842
X10922Y-06604
X11938Y-08128
X12688Y-08128
X10922Y-07112
X10922Y-07874
X13716Y-0762
X13716Y-08382
X09906Y-07112
X09906Y-07874
X15748Y-10668
X15748Y-11418
X1524Y-12437
X1524Y-12687
X11938Y-06096
X11938Y-0635
X11938Y-06604
X11938Y-06858
X11938Y-07112
X11938Y-07366
X11938Y-0762
X127Y-06096
X127Y-0635
X127Y-06604
X127Y-06858
X127Y-07112
X127Y-07366
X127Y-0762
X15748Y-0941
X15748Y-1016
X12192Y-09144
X12954Y-09144
X13208Y-11938
X1397Y-11938
X12065Y-09398
X12065Y-09652
X12065Y-09906
X12065Y-1016
X12065Y-10414
X12065Y-10668
X12065Y-10922
X12065Y-11176
X12065Y-1143
X13843Y-09398
X13843Y-09652
X13843Y-09906
X13843Y-1016
X13843Y-10414
X13843Y-10668
X13843Y-10922
X13843Y-11176
X13843Y-1143
X1524Y-10668
X1524Y-1143
X10414Y-09652
X10414Y-10414
X1143Y-05842
X1143Y-06604
X10414Y-07112
X10414Y-07874
X10414Y-05842
X10414Y-06604
X09906Y-09652
X09906Y-10414
X11938Y-05588
X127Y-05588
X14224Y-10668
X14224Y-1143
T2
X1524Y-1016
X1143Y-0508
X09906Y-06604
X09398Y-07112
X09398Y-07362
X09398Y-07612
X09398Y-1143
X09398Y-1168
X09398Y-1193
X09398Y-04572
X09398Y-04822
X09398Y-05072
X09398Y-09398
X09398Y-09648
X09398Y-09898
X16002Y-12446
X16002Y-127
X16002Y-12954
X16002Y-13208
X16002Y-13462
X16256Y-12446
X16256Y-127
X16256Y-12954
X16256Y-13208
X16256Y-13462
X09906Y-10922
T0
M30
