G04 #@! TF.GenerationSoftware,KiCad,Pcbnew,(5.1.8-0-10_14)*
G04 #@! TF.CreationDate,2021-06-15T12:35:27+09:00*
G04 #@! TF.ProjectId,3320VCF,33333230-5643-4462-9e6b-696361645f70,rev?*
G04 #@! TF.SameCoordinates,Original*
G04 #@! TF.FileFunction,Legend,Top*
G04 #@! TF.FilePolarity,Positive*
%FSLAX46Y46*%
G04 Gerber Fmt 4.6, Leading zero omitted, Abs format (unit mm)*
G04 Created by KiCad (PCBNEW (5.1.8-0-10_14)) date 2021-06-15 12:35:27*
%MOMM*%
%LPD*%
G01*
G04 APERTURE LIST*
%ADD10C,0.120000*%
%ADD11C,0.150000*%
%ADD12C,3.200000*%
%ADD13C,1.600000*%
%ADD14O,1.600000X1.600000*%
%ADD15R,1.600000X1.600000*%
%ADD16R,1.700000X1.700000*%
%ADD17O,1.700000X1.700000*%
%ADD18O,2.000000X1.200000*%
%ADD19C,1.800000*%
G04 APERTURE END LIST*
D10*
X125840000Y-81280000D02*
X125800000Y-81280000D01*
X120420000Y-81280000D02*
X120460000Y-81280000D01*
X125800000Y-79610000D02*
X120460000Y-79610000D01*
X125800000Y-82950000D02*
X125800000Y-79610000D01*
X120460000Y-82950000D02*
X125800000Y-82950000D01*
X120460000Y-79610000D02*
X120460000Y-82950000D01*
X102770000Y-65500000D02*
X103100000Y-65500000D01*
X102770000Y-58960000D02*
X102770000Y-65500000D01*
X103100000Y-58960000D02*
X102770000Y-58960000D01*
X105510000Y-65500000D02*
X105180000Y-65500000D01*
X105510000Y-58960000D02*
X105510000Y-65500000D01*
X105180000Y-58960000D02*
X105510000Y-58960000D01*
X115670000Y-97060000D02*
X115340000Y-97060000D01*
X115670000Y-103600000D02*
X115670000Y-97060000D01*
X115340000Y-103600000D02*
X115670000Y-103600000D01*
X112930000Y-97060000D02*
X113260000Y-97060000D01*
X112930000Y-103600000D02*
X112930000Y-97060000D01*
X113260000Y-103600000D02*
X112930000Y-103600000D01*
X98020000Y-78200000D02*
X97690000Y-78200000D01*
X97690000Y-78200000D02*
X97690000Y-71660000D01*
X97690000Y-71660000D02*
X98020000Y-71660000D01*
X100100000Y-78200000D02*
X100430000Y-78200000D01*
X100430000Y-78200000D02*
X100430000Y-71660000D01*
X100430000Y-71660000D02*
X100100000Y-71660000D01*
X102770000Y-78200000D02*
X103100000Y-78200000D01*
X102770000Y-71660000D02*
X102770000Y-78200000D01*
X103100000Y-71660000D02*
X102770000Y-71660000D01*
X105510000Y-78200000D02*
X105180000Y-78200000D01*
X105510000Y-71660000D02*
X105510000Y-78200000D01*
X105180000Y-71660000D02*
X105510000Y-71660000D01*
X100430000Y-46260000D02*
X100100000Y-46260000D01*
X100430000Y-52800000D02*
X100430000Y-46260000D01*
X100100000Y-52800000D02*
X100430000Y-52800000D01*
X97690000Y-46260000D02*
X98020000Y-46260000D01*
X97690000Y-52800000D02*
X97690000Y-46260000D01*
X98020000Y-52800000D02*
X97690000Y-52800000D01*
X108180000Y-78200000D02*
X107850000Y-78200000D01*
X107850000Y-78200000D02*
X107850000Y-71660000D01*
X107850000Y-71660000D02*
X108180000Y-71660000D01*
X110260000Y-78200000D02*
X110590000Y-78200000D01*
X110590000Y-78200000D02*
X110590000Y-71660000D01*
X110590000Y-71660000D02*
X110260000Y-71660000D01*
X107850000Y-65500000D02*
X108180000Y-65500000D01*
X107850000Y-58960000D02*
X107850000Y-65500000D01*
X108180000Y-58960000D02*
X107850000Y-58960000D01*
X110590000Y-65500000D02*
X110260000Y-65500000D01*
X110590000Y-58960000D02*
X110590000Y-65500000D01*
X110260000Y-58960000D02*
X110590000Y-58960000D01*
X140870000Y-113760000D02*
X141200000Y-113760000D01*
X140870000Y-107220000D02*
X140870000Y-113760000D01*
X141200000Y-107220000D02*
X140870000Y-107220000D01*
X143610000Y-113760000D02*
X143280000Y-113760000D01*
X143610000Y-107220000D02*
X143610000Y-113760000D01*
X143280000Y-107220000D02*
X143610000Y-107220000D01*
X148360000Y-107220000D02*
X148690000Y-107220000D01*
X148690000Y-107220000D02*
X148690000Y-113760000D01*
X148690000Y-113760000D02*
X148360000Y-113760000D01*
X146280000Y-107220000D02*
X145950000Y-107220000D01*
X145950000Y-107220000D02*
X145950000Y-113760000D01*
X145950000Y-113760000D02*
X146280000Y-113760000D01*
X100430000Y-114840000D02*
X100100000Y-114840000D01*
X100430000Y-121380000D02*
X100430000Y-114840000D01*
X100100000Y-121380000D02*
X100430000Y-121380000D01*
X97690000Y-114840000D02*
X98020000Y-114840000D01*
X97690000Y-121380000D02*
X97690000Y-114840000D01*
X98020000Y-121380000D02*
X97690000Y-121380000D01*
X136120000Y-83280000D02*
X135790000Y-83280000D01*
X135790000Y-83280000D02*
X135790000Y-76740000D01*
X135790000Y-76740000D02*
X136120000Y-76740000D01*
X138200000Y-83280000D02*
X138530000Y-83280000D01*
X138530000Y-83280000D02*
X138530000Y-76740000D01*
X138530000Y-76740000D02*
X138200000Y-76740000D01*
X107850000Y-113760000D02*
X108180000Y-113760000D01*
X107850000Y-107220000D02*
X107850000Y-113760000D01*
X108180000Y-107220000D02*
X107850000Y-107220000D01*
X110590000Y-113760000D02*
X110260000Y-113760000D01*
X110590000Y-107220000D02*
X110590000Y-113760000D01*
X110260000Y-107220000D02*
X110590000Y-107220000D01*
X107850000Y-103600000D02*
X108180000Y-103600000D01*
X107850000Y-97060000D02*
X107850000Y-103600000D01*
X108180000Y-97060000D02*
X107850000Y-97060000D01*
X110590000Y-103600000D02*
X110260000Y-103600000D01*
X110590000Y-97060000D02*
X110590000Y-103600000D01*
X110260000Y-97060000D02*
X110590000Y-97060000D01*
X102140000Y-90070000D02*
X102140000Y-90400000D01*
X108680000Y-90070000D02*
X102140000Y-90070000D01*
X108680000Y-90400000D02*
X108680000Y-90070000D01*
X102140000Y-92810000D02*
X102140000Y-92480000D01*
X108680000Y-92810000D02*
X102140000Y-92810000D01*
X108680000Y-92480000D02*
X108680000Y-92810000D01*
X131040000Y-83280000D02*
X130710000Y-83280000D01*
X130710000Y-83280000D02*
X130710000Y-76740000D01*
X130710000Y-76740000D02*
X131040000Y-76740000D01*
X133120000Y-83280000D02*
X133450000Y-83280000D01*
X133450000Y-83280000D02*
X133450000Y-76740000D01*
X133450000Y-76740000D02*
X133120000Y-76740000D01*
X115340000Y-58960000D02*
X115670000Y-58960000D01*
X115670000Y-58960000D02*
X115670000Y-65500000D01*
X115670000Y-65500000D02*
X115340000Y-65500000D01*
X113260000Y-58960000D02*
X112930000Y-58960000D01*
X112930000Y-58960000D02*
X112930000Y-65500000D01*
X112930000Y-65500000D02*
X113260000Y-65500000D01*
X126460000Y-57250000D02*
X126460000Y-56920000D01*
X119920000Y-57250000D02*
X126460000Y-57250000D01*
X119920000Y-56920000D02*
X119920000Y-57250000D01*
X126460000Y-54510000D02*
X126460000Y-54840000D01*
X119920000Y-54510000D02*
X126460000Y-54510000D01*
X119920000Y-54840000D02*
X119920000Y-54510000D01*
X133805000Y-62195225D02*
X133305000Y-62195225D01*
X133555000Y-61945225D02*
X133555000Y-62445225D01*
X132364000Y-67351000D02*
X131796000Y-67351000D01*
X132598000Y-67311000D02*
X131562000Y-67311000D01*
X132757000Y-67271000D02*
X131403000Y-67271000D01*
X132885000Y-67231000D02*
X131275000Y-67231000D01*
X132995000Y-67191000D02*
X131165000Y-67191000D01*
X133091000Y-67151000D02*
X131069000Y-67151000D01*
X133178000Y-67111000D02*
X130982000Y-67111000D01*
X133258000Y-67071000D02*
X130902000Y-67071000D01*
X131040000Y-67031000D02*
X130829000Y-67031000D01*
X133331000Y-67031000D02*
X133120000Y-67031000D01*
X131040000Y-66991000D02*
X130761000Y-66991000D01*
X133399000Y-66991000D02*
X133120000Y-66991000D01*
X131040000Y-66951000D02*
X130697000Y-66951000D01*
X133463000Y-66951000D02*
X133120000Y-66951000D01*
X131040000Y-66911000D02*
X130637000Y-66911000D01*
X133523000Y-66911000D02*
X133120000Y-66911000D01*
X131040000Y-66871000D02*
X130580000Y-66871000D01*
X133580000Y-66871000D02*
X133120000Y-66871000D01*
X131040000Y-66831000D02*
X130526000Y-66831000D01*
X133634000Y-66831000D02*
X133120000Y-66831000D01*
X131040000Y-66791000D02*
X130475000Y-66791000D01*
X133685000Y-66791000D02*
X133120000Y-66791000D01*
X131040000Y-66751000D02*
X130427000Y-66751000D01*
X133733000Y-66751000D02*
X133120000Y-66751000D01*
X131040000Y-66711000D02*
X130381000Y-66711000D01*
X133779000Y-66711000D02*
X133120000Y-66711000D01*
X131040000Y-66671000D02*
X130337000Y-66671000D01*
X133823000Y-66671000D02*
X133120000Y-66671000D01*
X131040000Y-66631000D02*
X130295000Y-66631000D01*
X133865000Y-66631000D02*
X133120000Y-66631000D01*
X131040000Y-66591000D02*
X130254000Y-66591000D01*
X133906000Y-66591000D02*
X133120000Y-66591000D01*
X131040000Y-66551000D02*
X130216000Y-66551000D01*
X133944000Y-66551000D02*
X133120000Y-66551000D01*
X131040000Y-66511000D02*
X130179000Y-66511000D01*
X133981000Y-66511000D02*
X133120000Y-66511000D01*
X131040000Y-66471000D02*
X130143000Y-66471000D01*
X134017000Y-66471000D02*
X133120000Y-66471000D01*
X131040000Y-66431000D02*
X130109000Y-66431000D01*
X134051000Y-66431000D02*
X133120000Y-66431000D01*
X131040000Y-66391000D02*
X130076000Y-66391000D01*
X134084000Y-66391000D02*
X133120000Y-66391000D01*
X131040000Y-66351000D02*
X130045000Y-66351000D01*
X134115000Y-66351000D02*
X133120000Y-66351000D01*
X131040000Y-66311000D02*
X130015000Y-66311000D01*
X134145000Y-66311000D02*
X133120000Y-66311000D01*
X131040000Y-66271000D02*
X129985000Y-66271000D01*
X134175000Y-66271000D02*
X133120000Y-66271000D01*
X131040000Y-66231000D02*
X129958000Y-66231000D01*
X134202000Y-66231000D02*
X133120000Y-66231000D01*
X131040000Y-66191000D02*
X129931000Y-66191000D01*
X134229000Y-66191000D02*
X133120000Y-66191000D01*
X131040000Y-66151000D02*
X129905000Y-66151000D01*
X134255000Y-66151000D02*
X133120000Y-66151000D01*
X131040000Y-66111000D02*
X129880000Y-66111000D01*
X134280000Y-66111000D02*
X133120000Y-66111000D01*
X131040000Y-66071000D02*
X129856000Y-66071000D01*
X134304000Y-66071000D02*
X133120000Y-66071000D01*
X131040000Y-66031000D02*
X129833000Y-66031000D01*
X134327000Y-66031000D02*
X133120000Y-66031000D01*
X131040000Y-65991000D02*
X129812000Y-65991000D01*
X134348000Y-65991000D02*
X133120000Y-65991000D01*
X131040000Y-65951000D02*
X129790000Y-65951000D01*
X134370000Y-65951000D02*
X133120000Y-65951000D01*
X131040000Y-65911000D02*
X129770000Y-65911000D01*
X134390000Y-65911000D02*
X133120000Y-65911000D01*
X131040000Y-65871000D02*
X129751000Y-65871000D01*
X134409000Y-65871000D02*
X133120000Y-65871000D01*
X131040000Y-65831000D02*
X129732000Y-65831000D01*
X134428000Y-65831000D02*
X133120000Y-65831000D01*
X131040000Y-65791000D02*
X129715000Y-65791000D01*
X134445000Y-65791000D02*
X133120000Y-65791000D01*
X131040000Y-65751000D02*
X129698000Y-65751000D01*
X134462000Y-65751000D02*
X133120000Y-65751000D01*
X131040000Y-65711000D02*
X129682000Y-65711000D01*
X134478000Y-65711000D02*
X133120000Y-65711000D01*
X131040000Y-65671000D02*
X129666000Y-65671000D01*
X134494000Y-65671000D02*
X133120000Y-65671000D01*
X131040000Y-65631000D02*
X129652000Y-65631000D01*
X134508000Y-65631000D02*
X133120000Y-65631000D01*
X131040000Y-65591000D02*
X129638000Y-65591000D01*
X134522000Y-65591000D02*
X133120000Y-65591000D01*
X131040000Y-65551000D02*
X129625000Y-65551000D01*
X134535000Y-65551000D02*
X133120000Y-65551000D01*
X131040000Y-65511000D02*
X129612000Y-65511000D01*
X134548000Y-65511000D02*
X133120000Y-65511000D01*
X131040000Y-65471000D02*
X129600000Y-65471000D01*
X134560000Y-65471000D02*
X133120000Y-65471000D01*
X131040000Y-65430000D02*
X129589000Y-65430000D01*
X134571000Y-65430000D02*
X133120000Y-65430000D01*
X131040000Y-65390000D02*
X129579000Y-65390000D01*
X134581000Y-65390000D02*
X133120000Y-65390000D01*
X131040000Y-65350000D02*
X129569000Y-65350000D01*
X134591000Y-65350000D02*
X133120000Y-65350000D01*
X131040000Y-65310000D02*
X129560000Y-65310000D01*
X134600000Y-65310000D02*
X133120000Y-65310000D01*
X131040000Y-65270000D02*
X129552000Y-65270000D01*
X134608000Y-65270000D02*
X133120000Y-65270000D01*
X131040000Y-65230000D02*
X129544000Y-65230000D01*
X134616000Y-65230000D02*
X133120000Y-65230000D01*
X131040000Y-65190000D02*
X129537000Y-65190000D01*
X134623000Y-65190000D02*
X133120000Y-65190000D01*
X131040000Y-65150000D02*
X129530000Y-65150000D01*
X134630000Y-65150000D02*
X133120000Y-65150000D01*
X131040000Y-65110000D02*
X129524000Y-65110000D01*
X134636000Y-65110000D02*
X133120000Y-65110000D01*
X131040000Y-65070000D02*
X129519000Y-65070000D01*
X134641000Y-65070000D02*
X133120000Y-65070000D01*
X131040000Y-65030000D02*
X129515000Y-65030000D01*
X134645000Y-65030000D02*
X133120000Y-65030000D01*
X131040000Y-64990000D02*
X129511000Y-64990000D01*
X134649000Y-64990000D02*
X133120000Y-64990000D01*
X134653000Y-64950000D02*
X129507000Y-64950000D01*
X134656000Y-64910000D02*
X129504000Y-64910000D01*
X134658000Y-64870000D02*
X129502000Y-64870000D01*
X134659000Y-64830000D02*
X129501000Y-64830000D01*
X134660000Y-64790000D02*
X129500000Y-64790000D01*
X134660000Y-64750000D02*
X129500000Y-64750000D01*
X134700000Y-64750000D02*
G75*
G03*
X134700000Y-64750000I-2620000J0D01*
G01*
X139160000Y-120420000D02*
X139160000Y-120750000D01*
X139160000Y-120750000D02*
X132620000Y-120750000D01*
X132620000Y-120750000D02*
X132620000Y-120420000D01*
X139160000Y-118340000D02*
X139160000Y-118010000D01*
X139160000Y-118010000D02*
X132620000Y-118010000D01*
X132620000Y-118010000D02*
X132620000Y-118340000D01*
X105510000Y-97060000D02*
X105180000Y-97060000D01*
X105510000Y-103600000D02*
X105510000Y-97060000D01*
X105180000Y-103600000D02*
X105510000Y-103600000D01*
X102770000Y-97060000D02*
X103100000Y-97060000D01*
X102770000Y-103600000D02*
X102770000Y-97060000D01*
X103100000Y-103600000D02*
X102770000Y-103600000D01*
X98020000Y-103600000D02*
X97690000Y-103600000D01*
X97690000Y-103600000D02*
X97690000Y-97060000D01*
X97690000Y-97060000D02*
X98020000Y-97060000D01*
X100100000Y-103600000D02*
X100430000Y-103600000D01*
X100430000Y-103600000D02*
X100430000Y-97060000D01*
X100430000Y-97060000D02*
X100100000Y-97060000D01*
X155810000Y-100520000D02*
X159150000Y-100520000D01*
X159150000Y-100520000D02*
X159150000Y-95180000D01*
X159150000Y-95180000D02*
X155810000Y-95180000D01*
X155810000Y-95180000D02*
X155810000Y-100520000D01*
X157480000Y-100560000D02*
X157480000Y-100520000D01*
X157480000Y-95140000D02*
X157480000Y-95180000D01*
X157480000Y-113140000D02*
X157480000Y-113100000D01*
X157480000Y-107720000D02*
X157480000Y-107760000D01*
X159150000Y-113100000D02*
X159150000Y-107760000D01*
X155810000Y-113100000D02*
X159150000Y-113100000D01*
X155810000Y-107760000D02*
X155810000Y-113100000D01*
X159150000Y-107760000D02*
X155810000Y-107760000D01*
X115970000Y-115380000D02*
X112630000Y-115380000D01*
X112630000Y-115380000D02*
X112630000Y-120720000D01*
X112630000Y-120720000D02*
X115970000Y-120720000D01*
X115970000Y-120720000D02*
X115970000Y-115380000D01*
X114300000Y-115340000D02*
X114300000Y-115380000D01*
X114300000Y-120760000D02*
X114300000Y-120720000D01*
X156320000Y-88900000D02*
X156280000Y-88900000D01*
X150900000Y-88900000D02*
X150940000Y-88900000D01*
X156280000Y-87230000D02*
X150940000Y-87230000D01*
X156280000Y-90570000D02*
X156280000Y-87230000D01*
X150940000Y-90570000D02*
X156280000Y-90570000D01*
X150940000Y-87230000D02*
X150940000Y-90570000D01*
X138200000Y-66580000D02*
X138530000Y-66580000D01*
X138530000Y-66580000D02*
X138530000Y-73120000D01*
X138530000Y-73120000D02*
X138200000Y-73120000D01*
X136120000Y-66580000D02*
X135790000Y-66580000D01*
X135790000Y-66580000D02*
X135790000Y-73120000D01*
X135790000Y-73120000D02*
X136120000Y-73120000D01*
X151360000Y-113760000D02*
X151030000Y-113760000D01*
X151030000Y-113760000D02*
X151030000Y-107220000D01*
X151030000Y-107220000D02*
X151360000Y-107220000D01*
X153440000Y-113760000D02*
X153770000Y-113760000D01*
X153770000Y-113760000D02*
X153770000Y-107220000D01*
X153770000Y-107220000D02*
X153440000Y-107220000D01*
X148690000Y-94520000D02*
X148360000Y-94520000D01*
X148690000Y-101060000D02*
X148690000Y-94520000D01*
X148360000Y-101060000D02*
X148690000Y-101060000D01*
X145950000Y-94520000D02*
X146280000Y-94520000D01*
X145950000Y-101060000D02*
X145950000Y-94520000D01*
X146280000Y-101060000D02*
X145950000Y-101060000D01*
X143280000Y-94520000D02*
X143610000Y-94520000D01*
X143610000Y-94520000D02*
X143610000Y-101060000D01*
X143610000Y-101060000D02*
X143280000Y-101060000D01*
X141200000Y-94520000D02*
X140870000Y-94520000D01*
X140870000Y-94520000D02*
X140870000Y-101060000D01*
X140870000Y-101060000D02*
X141200000Y-101060000D01*
X122460000Y-90400000D02*
X122460000Y-90070000D01*
X122460000Y-90070000D02*
X129000000Y-90070000D01*
X129000000Y-90070000D02*
X129000000Y-90400000D01*
X122460000Y-92480000D02*
X122460000Y-92810000D01*
X122460000Y-92810000D02*
X129000000Y-92810000D01*
X129000000Y-92810000D02*
X129000000Y-92480000D01*
X158750000Y-123190000D02*
X160020000Y-123190000D01*
X158750000Y-124460000D02*
X158750000Y-123190000D01*
X161062929Y-135000000D02*
X161517071Y-135000000D01*
X161062929Y-134240000D02*
X161517071Y-134240000D01*
X163602929Y-135000000D02*
X164000000Y-135000000D01*
X163602929Y-134240000D02*
X164000000Y-134240000D01*
X172660000Y-135000000D02*
X166660000Y-135000000D01*
X172660000Y-134240000D02*
X172660000Y-135000000D01*
X166660000Y-134240000D02*
X172660000Y-134240000D01*
X164000000Y-133350000D02*
X166660000Y-133350000D01*
X161062929Y-132460000D02*
X161517071Y-132460000D01*
X161062929Y-131700000D02*
X161517071Y-131700000D01*
X163602929Y-132460000D02*
X164000000Y-132460000D01*
X163602929Y-131700000D02*
X164000000Y-131700000D01*
X172660000Y-132460000D02*
X166660000Y-132460000D01*
X172660000Y-131700000D02*
X172660000Y-132460000D01*
X166660000Y-131700000D02*
X172660000Y-131700000D01*
X164000000Y-130810000D02*
X166660000Y-130810000D01*
X161062929Y-129920000D02*
X161517071Y-129920000D01*
X161062929Y-129160000D02*
X161517071Y-129160000D01*
X163602929Y-129920000D02*
X164000000Y-129920000D01*
X163602929Y-129160000D02*
X164000000Y-129160000D01*
X172660000Y-129920000D02*
X166660000Y-129920000D01*
X172660000Y-129160000D02*
X172660000Y-129920000D01*
X166660000Y-129160000D02*
X172660000Y-129160000D01*
X164000000Y-128270000D02*
X166660000Y-128270000D01*
X161062929Y-127380000D02*
X161517071Y-127380000D01*
X161062929Y-126620000D02*
X161517071Y-126620000D01*
X163602929Y-127380000D02*
X164000000Y-127380000D01*
X163602929Y-126620000D02*
X164000000Y-126620000D01*
X172660000Y-127380000D02*
X166660000Y-127380000D01*
X172660000Y-126620000D02*
X172660000Y-127380000D01*
X166660000Y-126620000D02*
X172660000Y-126620000D01*
X164000000Y-125730000D02*
X166660000Y-125730000D01*
X161130000Y-124840000D02*
X161517071Y-124840000D01*
X161130000Y-124080000D02*
X161517071Y-124080000D01*
X163602929Y-124840000D02*
X164000000Y-124840000D01*
X163602929Y-124080000D02*
X164000000Y-124080000D01*
X166660000Y-124740000D02*
X172660000Y-124740000D01*
X166660000Y-124620000D02*
X172660000Y-124620000D01*
X166660000Y-124500000D02*
X172660000Y-124500000D01*
X166660000Y-124380000D02*
X172660000Y-124380000D01*
X166660000Y-124260000D02*
X172660000Y-124260000D01*
X166660000Y-124140000D02*
X172660000Y-124140000D01*
X172660000Y-124840000D02*
X166660000Y-124840000D01*
X172660000Y-124080000D02*
X172660000Y-124840000D01*
X166660000Y-124080000D02*
X172660000Y-124080000D01*
X166660000Y-123130000D02*
X164000000Y-123130000D01*
X166660000Y-135950000D02*
X166660000Y-123130000D01*
X164000000Y-135950000D02*
X166660000Y-135950000D01*
X164000000Y-123130000D02*
X164000000Y-135950000D01*
X97730000Y-67370000D02*
X100390000Y-67370000D01*
X97730000Y-67310000D02*
X97730000Y-67370000D01*
X100390000Y-67310000D02*
X100390000Y-67370000D01*
X97730000Y-67310000D02*
X100390000Y-67310000D01*
X97730000Y-66040000D02*
X97730000Y-64710000D01*
X97730000Y-64710000D02*
X99060000Y-64710000D01*
X151070000Y-100270000D02*
X152400000Y-100270000D01*
X151070000Y-101600000D02*
X151070000Y-100270000D01*
X151070000Y-102870000D02*
X153730000Y-102870000D01*
X153730000Y-102870000D02*
X153730000Y-102930000D01*
X151070000Y-102870000D02*
X151070000Y-102930000D01*
X151070000Y-102930000D02*
X153730000Y-102930000D01*
X97730000Y-107890000D02*
X99060000Y-107890000D01*
X97730000Y-109220000D02*
X97730000Y-107890000D01*
X97730000Y-110490000D02*
X100390000Y-110490000D01*
X100390000Y-110490000D02*
X100390000Y-110550000D01*
X97730000Y-110490000D02*
X97730000Y-110550000D01*
X97730000Y-110550000D02*
X100390000Y-110550000D01*
X112970000Y-52130000D02*
X115630000Y-52130000D01*
X112970000Y-52070000D02*
X112970000Y-52130000D01*
X115630000Y-52070000D02*
X115630000Y-52130000D01*
X112970000Y-52070000D02*
X115630000Y-52070000D01*
X112970000Y-50800000D02*
X112970000Y-49470000D01*
X112970000Y-49470000D02*
X114300000Y-49470000D01*
X125840000Y-59630000D02*
X124190000Y-59630000D01*
X125840000Y-77530000D02*
X125840000Y-59630000D01*
X120540000Y-77530000D02*
X125840000Y-77530000D01*
X120540000Y-59630000D02*
X120540000Y-77530000D01*
X122190000Y-59630000D02*
X120540000Y-59630000D01*
X124190000Y-59630000D02*
G75*
G02*
X122190000Y-59630000I-1000000J0D01*
G01*
X135890000Y-113030000D02*
G75*
G03*
X135890000Y-113030000I-1270000J0D01*
G01*
X133003333Y-115400000D02*
X139930000Y-115400000D01*
X133003333Y-115040000D02*
X133003333Y-115400000D01*
X126076667Y-115040000D02*
X133003333Y-115040000D01*
X126076667Y-115400000D02*
X126076667Y-115040000D01*
X119150000Y-115400000D02*
X126076667Y-115400000D01*
X119150000Y-92880000D02*
X119150000Y-115400000D01*
X139930000Y-92880000D02*
X119150000Y-92880000D01*
X139930000Y-115400000D02*
X139930000Y-92880000D01*
X73860000Y-76740000D02*
X73860000Y-70500000D01*
X83860000Y-76740000D02*
X83860000Y-70500000D01*
X83860000Y-70500000D02*
X73860000Y-70500000D01*
X83860000Y-76740000D02*
X73860000Y-76740000D01*
X83860000Y-77240000D02*
X83860000Y-70000000D01*
X88860000Y-77240000D02*
X88860000Y-70000000D01*
X88860000Y-70000000D02*
X83860000Y-70000000D01*
X88860000Y-77240000D02*
X83860000Y-77240000D01*
X88860000Y-78490000D02*
X88860000Y-68750000D01*
X96150000Y-78490000D02*
X96150000Y-68750000D01*
X96150000Y-68750000D02*
X88860000Y-68750000D01*
X96150000Y-78490000D02*
X88860000Y-78490000D01*
X96150000Y-53090000D02*
X88860000Y-53090000D01*
X96150000Y-43350000D02*
X88860000Y-43350000D01*
X96150000Y-53090000D02*
X96150000Y-43350000D01*
X88860000Y-53090000D02*
X88860000Y-43350000D01*
X88860000Y-51840000D02*
X83860000Y-51840000D01*
X88860000Y-44600000D02*
X83860000Y-44600000D01*
X88860000Y-51840000D02*
X88860000Y-44600000D01*
X83860000Y-51840000D02*
X83860000Y-44600000D01*
X83860000Y-51340000D02*
X73860000Y-51340000D01*
X83860000Y-45100000D02*
X73860000Y-45100000D01*
X83860000Y-51340000D02*
X83860000Y-45100000D01*
X73860000Y-51340000D02*
X73860000Y-45100000D01*
X96150000Y-121670000D02*
X88860000Y-121670000D01*
X96150000Y-111930000D02*
X88860000Y-111930000D01*
X96150000Y-121670000D02*
X96150000Y-111930000D01*
X88860000Y-121670000D02*
X88860000Y-111930000D01*
X88860000Y-120420000D02*
X83860000Y-120420000D01*
X88860000Y-113180000D02*
X83860000Y-113180000D01*
X88860000Y-120420000D02*
X88860000Y-113180000D01*
X83860000Y-120420000D02*
X83860000Y-113180000D01*
X83860000Y-119920000D02*
X73860000Y-119920000D01*
X83860000Y-113680000D02*
X73860000Y-113680000D01*
X83860000Y-119920000D02*
X83860000Y-113680000D01*
X73860000Y-119920000D02*
X73860000Y-113680000D01*
X73860000Y-99600000D02*
X73860000Y-93360000D01*
X83860000Y-99600000D02*
X83860000Y-93360000D01*
X83860000Y-93360000D02*
X73860000Y-93360000D01*
X83860000Y-99600000D02*
X73860000Y-99600000D01*
X83860000Y-100100000D02*
X83860000Y-92860000D01*
X88860000Y-100100000D02*
X88860000Y-92860000D01*
X88860000Y-92860000D02*
X83860000Y-92860000D01*
X88860000Y-100100000D02*
X83860000Y-100100000D01*
X88860000Y-101350000D02*
X88860000Y-91610000D01*
X96150000Y-101350000D02*
X96150000Y-91610000D01*
X96150000Y-91610000D02*
X88860000Y-91610000D01*
X96150000Y-101350000D02*
X88860000Y-101350000D01*
X150246000Y-136555241D02*
X150876000Y-136555241D01*
X150561000Y-136870241D02*
X150561000Y-136240241D01*
X151998000Y-130129000D02*
X152802000Y-130129000D01*
X151767000Y-130169000D02*
X153033000Y-130169000D01*
X151598000Y-130209000D02*
X153202000Y-130209000D01*
X151460000Y-130249000D02*
X153340000Y-130249000D01*
X151341000Y-130289000D02*
X153459000Y-130289000D01*
X151235000Y-130329000D02*
X153565000Y-130329000D01*
X151138000Y-130369000D02*
X153662000Y-130369000D01*
X151050000Y-130409000D02*
X153750000Y-130409000D01*
X150968000Y-130449000D02*
X153832000Y-130449000D01*
X150891000Y-130489000D02*
X153909000Y-130489000D01*
X150819000Y-130529000D02*
X153981000Y-130529000D01*
X150750000Y-130569000D02*
X154050000Y-130569000D01*
X150686000Y-130609000D02*
X154114000Y-130609000D01*
X150624000Y-130649000D02*
X154176000Y-130649000D01*
X150566000Y-130689000D02*
X154234000Y-130689000D01*
X150510000Y-130729000D02*
X154290000Y-130729000D01*
X150456000Y-130769000D02*
X154344000Y-130769000D01*
X150405000Y-130809000D02*
X154395000Y-130809000D01*
X150356000Y-130849000D02*
X154444000Y-130849000D01*
X150308000Y-130889000D02*
X154492000Y-130889000D01*
X150263000Y-130929000D02*
X154537000Y-130929000D01*
X150218000Y-130969000D02*
X154582000Y-130969000D01*
X150176000Y-131009000D02*
X154624000Y-131009000D01*
X150135000Y-131049000D02*
X154665000Y-131049000D01*
X153440000Y-131089000D02*
X154705000Y-131089000D01*
X150095000Y-131089000D02*
X151360000Y-131089000D01*
X153440000Y-131129000D02*
X154743000Y-131129000D01*
X150057000Y-131129000D02*
X151360000Y-131129000D01*
X153440000Y-131169000D02*
X154780000Y-131169000D01*
X150020000Y-131169000D02*
X151360000Y-131169000D01*
X153440000Y-131209000D02*
X154816000Y-131209000D01*
X149984000Y-131209000D02*
X151360000Y-131209000D01*
X153440000Y-131249000D02*
X154850000Y-131249000D01*
X149950000Y-131249000D02*
X151360000Y-131249000D01*
X153440000Y-131289000D02*
X154884000Y-131289000D01*
X149916000Y-131289000D02*
X151360000Y-131289000D01*
X153440000Y-131329000D02*
X154916000Y-131329000D01*
X149884000Y-131329000D02*
X151360000Y-131329000D01*
X153440000Y-131369000D02*
X154948000Y-131369000D01*
X149852000Y-131369000D02*
X151360000Y-131369000D01*
X153440000Y-131409000D02*
X154978000Y-131409000D01*
X149822000Y-131409000D02*
X151360000Y-131409000D01*
X153440000Y-131449000D02*
X155007000Y-131449000D01*
X149793000Y-131449000D02*
X151360000Y-131449000D01*
X153440000Y-131489000D02*
X155036000Y-131489000D01*
X149764000Y-131489000D02*
X151360000Y-131489000D01*
X153440000Y-131529000D02*
X155064000Y-131529000D01*
X149736000Y-131529000D02*
X151360000Y-131529000D01*
X153440000Y-131569000D02*
X155090000Y-131569000D01*
X149710000Y-131569000D02*
X151360000Y-131569000D01*
X153440000Y-131609000D02*
X155116000Y-131609000D01*
X149684000Y-131609000D02*
X151360000Y-131609000D01*
X153440000Y-131649000D02*
X155142000Y-131649000D01*
X149658000Y-131649000D02*
X151360000Y-131649000D01*
X153440000Y-131689000D02*
X155166000Y-131689000D01*
X149634000Y-131689000D02*
X151360000Y-131689000D01*
X153440000Y-131729000D02*
X155190000Y-131729000D01*
X149610000Y-131729000D02*
X151360000Y-131729000D01*
X153440000Y-131769000D02*
X155212000Y-131769000D01*
X149588000Y-131769000D02*
X151360000Y-131769000D01*
X153440000Y-131809000D02*
X155234000Y-131809000D01*
X149566000Y-131809000D02*
X151360000Y-131809000D01*
X153440000Y-131849000D02*
X155256000Y-131849000D01*
X149544000Y-131849000D02*
X151360000Y-131849000D01*
X153440000Y-131889000D02*
X155276000Y-131889000D01*
X149524000Y-131889000D02*
X151360000Y-131889000D01*
X153440000Y-131929000D02*
X155296000Y-131929000D01*
X149504000Y-131929000D02*
X151360000Y-131929000D01*
X153440000Y-131969000D02*
X155316000Y-131969000D01*
X149484000Y-131969000D02*
X151360000Y-131969000D01*
X153440000Y-132009000D02*
X155334000Y-132009000D01*
X149466000Y-132009000D02*
X151360000Y-132009000D01*
X153440000Y-132049000D02*
X155352000Y-132049000D01*
X149448000Y-132049000D02*
X151360000Y-132049000D01*
X153440000Y-132089000D02*
X155370000Y-132089000D01*
X149430000Y-132089000D02*
X151360000Y-132089000D01*
X153440000Y-132129000D02*
X155386000Y-132129000D01*
X149414000Y-132129000D02*
X151360000Y-132129000D01*
X153440000Y-132169000D02*
X155402000Y-132169000D01*
X149398000Y-132169000D02*
X151360000Y-132169000D01*
X153440000Y-132209000D02*
X155418000Y-132209000D01*
X149382000Y-132209000D02*
X151360000Y-132209000D01*
X153440000Y-132249000D02*
X155433000Y-132249000D01*
X149367000Y-132249000D02*
X151360000Y-132249000D01*
X153440000Y-132289000D02*
X155447000Y-132289000D01*
X149353000Y-132289000D02*
X151360000Y-132289000D01*
X153440000Y-132329000D02*
X155461000Y-132329000D01*
X149339000Y-132329000D02*
X151360000Y-132329000D01*
X153440000Y-132369000D02*
X155474000Y-132369000D01*
X149326000Y-132369000D02*
X151360000Y-132369000D01*
X153440000Y-132409000D02*
X155486000Y-132409000D01*
X149314000Y-132409000D02*
X151360000Y-132409000D01*
X153440000Y-132449000D02*
X155498000Y-132449000D01*
X149302000Y-132449000D02*
X151360000Y-132449000D01*
X153440000Y-132489000D02*
X155510000Y-132489000D01*
X149290000Y-132489000D02*
X151360000Y-132489000D01*
X153440000Y-132529000D02*
X155521000Y-132529000D01*
X149279000Y-132529000D02*
X151360000Y-132529000D01*
X153440000Y-132569000D02*
X155531000Y-132569000D01*
X149269000Y-132569000D02*
X151360000Y-132569000D01*
X153440000Y-132609000D02*
X155541000Y-132609000D01*
X149259000Y-132609000D02*
X151360000Y-132609000D01*
X153440000Y-132649000D02*
X155550000Y-132649000D01*
X149250000Y-132649000D02*
X151360000Y-132649000D01*
X153440000Y-132690000D02*
X155559000Y-132690000D01*
X149241000Y-132690000D02*
X151360000Y-132690000D01*
X153440000Y-132730000D02*
X155567000Y-132730000D01*
X149233000Y-132730000D02*
X151360000Y-132730000D01*
X153440000Y-132770000D02*
X155575000Y-132770000D01*
X149225000Y-132770000D02*
X151360000Y-132770000D01*
X153440000Y-132810000D02*
X155582000Y-132810000D01*
X149218000Y-132810000D02*
X151360000Y-132810000D01*
X153440000Y-132850000D02*
X155589000Y-132850000D01*
X149211000Y-132850000D02*
X151360000Y-132850000D01*
X153440000Y-132890000D02*
X155595000Y-132890000D01*
X149205000Y-132890000D02*
X151360000Y-132890000D01*
X153440000Y-132930000D02*
X155601000Y-132930000D01*
X149199000Y-132930000D02*
X151360000Y-132930000D01*
X153440000Y-132970000D02*
X155606000Y-132970000D01*
X149194000Y-132970000D02*
X151360000Y-132970000D01*
X153440000Y-133010000D02*
X155611000Y-133010000D01*
X149189000Y-133010000D02*
X151360000Y-133010000D01*
X153440000Y-133050000D02*
X155615000Y-133050000D01*
X149185000Y-133050000D02*
X151360000Y-133050000D01*
X153440000Y-133090000D02*
X155618000Y-133090000D01*
X149182000Y-133090000D02*
X151360000Y-133090000D01*
X153440000Y-133130000D02*
X155622000Y-133130000D01*
X149178000Y-133130000D02*
X151360000Y-133130000D01*
X149176000Y-133170000D02*
X155624000Y-133170000D01*
X149173000Y-133210000D02*
X155627000Y-133210000D01*
X149172000Y-133250000D02*
X155628000Y-133250000D01*
X149170000Y-133290000D02*
X155630000Y-133290000D01*
X149170000Y-133330000D02*
X155630000Y-133330000D01*
X149170000Y-133370000D02*
X155630000Y-133370000D01*
X155670000Y-133370000D02*
G75*
G03*
X155670000Y-133370000I-3270000J0D01*
G01*
X155670000Y-125619758D02*
G75*
G03*
X155670000Y-125619758I-3270000J0D01*
G01*
X149170000Y-125619758D02*
X155630000Y-125619758D01*
X149170000Y-125579758D02*
X155630000Y-125579758D01*
X149170000Y-125539758D02*
X155630000Y-125539758D01*
X149172000Y-125499758D02*
X155628000Y-125499758D01*
X149173000Y-125459758D02*
X155627000Y-125459758D01*
X149176000Y-125419758D02*
X155624000Y-125419758D01*
X149178000Y-125379758D02*
X151360000Y-125379758D01*
X153440000Y-125379758D02*
X155622000Y-125379758D01*
X149182000Y-125339758D02*
X151360000Y-125339758D01*
X153440000Y-125339758D02*
X155618000Y-125339758D01*
X149185000Y-125299758D02*
X151360000Y-125299758D01*
X153440000Y-125299758D02*
X155615000Y-125299758D01*
X149189000Y-125259758D02*
X151360000Y-125259758D01*
X153440000Y-125259758D02*
X155611000Y-125259758D01*
X149194000Y-125219758D02*
X151360000Y-125219758D01*
X153440000Y-125219758D02*
X155606000Y-125219758D01*
X149199000Y-125179758D02*
X151360000Y-125179758D01*
X153440000Y-125179758D02*
X155601000Y-125179758D01*
X149205000Y-125139758D02*
X151360000Y-125139758D01*
X153440000Y-125139758D02*
X155595000Y-125139758D01*
X149211000Y-125099758D02*
X151360000Y-125099758D01*
X153440000Y-125099758D02*
X155589000Y-125099758D01*
X149218000Y-125059758D02*
X151360000Y-125059758D01*
X153440000Y-125059758D02*
X155582000Y-125059758D01*
X149225000Y-125019758D02*
X151360000Y-125019758D01*
X153440000Y-125019758D02*
X155575000Y-125019758D01*
X149233000Y-124979758D02*
X151360000Y-124979758D01*
X153440000Y-124979758D02*
X155567000Y-124979758D01*
X149241000Y-124939758D02*
X151360000Y-124939758D01*
X153440000Y-124939758D02*
X155559000Y-124939758D01*
X149250000Y-124898758D02*
X151360000Y-124898758D01*
X153440000Y-124898758D02*
X155550000Y-124898758D01*
X149259000Y-124858758D02*
X151360000Y-124858758D01*
X153440000Y-124858758D02*
X155541000Y-124858758D01*
X149269000Y-124818758D02*
X151360000Y-124818758D01*
X153440000Y-124818758D02*
X155531000Y-124818758D01*
X149279000Y-124778758D02*
X151360000Y-124778758D01*
X153440000Y-124778758D02*
X155521000Y-124778758D01*
X149290000Y-124738758D02*
X151360000Y-124738758D01*
X153440000Y-124738758D02*
X155510000Y-124738758D01*
X149302000Y-124698758D02*
X151360000Y-124698758D01*
X153440000Y-124698758D02*
X155498000Y-124698758D01*
X149314000Y-124658758D02*
X151360000Y-124658758D01*
X153440000Y-124658758D02*
X155486000Y-124658758D01*
X149326000Y-124618758D02*
X151360000Y-124618758D01*
X153440000Y-124618758D02*
X155474000Y-124618758D01*
X149339000Y-124578758D02*
X151360000Y-124578758D01*
X153440000Y-124578758D02*
X155461000Y-124578758D01*
X149353000Y-124538758D02*
X151360000Y-124538758D01*
X153440000Y-124538758D02*
X155447000Y-124538758D01*
X149367000Y-124498758D02*
X151360000Y-124498758D01*
X153440000Y-124498758D02*
X155433000Y-124498758D01*
X149382000Y-124458758D02*
X151360000Y-124458758D01*
X153440000Y-124458758D02*
X155418000Y-124458758D01*
X149398000Y-124418758D02*
X151360000Y-124418758D01*
X153440000Y-124418758D02*
X155402000Y-124418758D01*
X149414000Y-124378758D02*
X151360000Y-124378758D01*
X153440000Y-124378758D02*
X155386000Y-124378758D01*
X149430000Y-124338758D02*
X151360000Y-124338758D01*
X153440000Y-124338758D02*
X155370000Y-124338758D01*
X149448000Y-124298758D02*
X151360000Y-124298758D01*
X153440000Y-124298758D02*
X155352000Y-124298758D01*
X149466000Y-124258758D02*
X151360000Y-124258758D01*
X153440000Y-124258758D02*
X155334000Y-124258758D01*
X149484000Y-124218758D02*
X151360000Y-124218758D01*
X153440000Y-124218758D02*
X155316000Y-124218758D01*
X149504000Y-124178758D02*
X151360000Y-124178758D01*
X153440000Y-124178758D02*
X155296000Y-124178758D01*
X149524000Y-124138758D02*
X151360000Y-124138758D01*
X153440000Y-124138758D02*
X155276000Y-124138758D01*
X149544000Y-124098758D02*
X151360000Y-124098758D01*
X153440000Y-124098758D02*
X155256000Y-124098758D01*
X149566000Y-124058758D02*
X151360000Y-124058758D01*
X153440000Y-124058758D02*
X155234000Y-124058758D01*
X149588000Y-124018758D02*
X151360000Y-124018758D01*
X153440000Y-124018758D02*
X155212000Y-124018758D01*
X149610000Y-123978758D02*
X151360000Y-123978758D01*
X153440000Y-123978758D02*
X155190000Y-123978758D01*
X149634000Y-123938758D02*
X151360000Y-123938758D01*
X153440000Y-123938758D02*
X155166000Y-123938758D01*
X149658000Y-123898758D02*
X151360000Y-123898758D01*
X153440000Y-123898758D02*
X155142000Y-123898758D01*
X149684000Y-123858758D02*
X151360000Y-123858758D01*
X153440000Y-123858758D02*
X155116000Y-123858758D01*
X149710000Y-123818758D02*
X151360000Y-123818758D01*
X153440000Y-123818758D02*
X155090000Y-123818758D01*
X149736000Y-123778758D02*
X151360000Y-123778758D01*
X153440000Y-123778758D02*
X155064000Y-123778758D01*
X149764000Y-123738758D02*
X151360000Y-123738758D01*
X153440000Y-123738758D02*
X155036000Y-123738758D01*
X149793000Y-123698758D02*
X151360000Y-123698758D01*
X153440000Y-123698758D02*
X155007000Y-123698758D01*
X149822000Y-123658758D02*
X151360000Y-123658758D01*
X153440000Y-123658758D02*
X154978000Y-123658758D01*
X149852000Y-123618758D02*
X151360000Y-123618758D01*
X153440000Y-123618758D02*
X154948000Y-123618758D01*
X149884000Y-123578758D02*
X151360000Y-123578758D01*
X153440000Y-123578758D02*
X154916000Y-123578758D01*
X149916000Y-123538758D02*
X151360000Y-123538758D01*
X153440000Y-123538758D02*
X154884000Y-123538758D01*
X149950000Y-123498758D02*
X151360000Y-123498758D01*
X153440000Y-123498758D02*
X154850000Y-123498758D01*
X149984000Y-123458758D02*
X151360000Y-123458758D01*
X153440000Y-123458758D02*
X154816000Y-123458758D01*
X150020000Y-123418758D02*
X151360000Y-123418758D01*
X153440000Y-123418758D02*
X154780000Y-123418758D01*
X150057000Y-123378758D02*
X151360000Y-123378758D01*
X153440000Y-123378758D02*
X154743000Y-123378758D01*
X150095000Y-123338758D02*
X151360000Y-123338758D01*
X153440000Y-123338758D02*
X154705000Y-123338758D01*
X150135000Y-123298758D02*
X154665000Y-123298758D01*
X150176000Y-123258758D02*
X154624000Y-123258758D01*
X150218000Y-123218758D02*
X154582000Y-123218758D01*
X150263000Y-123178758D02*
X154537000Y-123178758D01*
X150308000Y-123138758D02*
X154492000Y-123138758D01*
X150356000Y-123098758D02*
X154444000Y-123098758D01*
X150405000Y-123058758D02*
X154395000Y-123058758D01*
X150456000Y-123018758D02*
X154344000Y-123018758D01*
X150510000Y-122978758D02*
X154290000Y-122978758D01*
X150566000Y-122938758D02*
X154234000Y-122938758D01*
X150624000Y-122898758D02*
X154176000Y-122898758D01*
X150686000Y-122858758D02*
X154114000Y-122858758D01*
X150750000Y-122818758D02*
X154050000Y-122818758D01*
X150819000Y-122778758D02*
X153981000Y-122778758D01*
X150891000Y-122738758D02*
X153909000Y-122738758D01*
X150968000Y-122698758D02*
X153832000Y-122698758D01*
X151050000Y-122658758D02*
X153750000Y-122658758D01*
X151138000Y-122618758D02*
X153662000Y-122618758D01*
X151235000Y-122578758D02*
X153565000Y-122578758D01*
X151341000Y-122538758D02*
X153459000Y-122538758D01*
X151460000Y-122498758D02*
X153340000Y-122498758D01*
X151598000Y-122458758D02*
X153202000Y-122458758D01*
X151767000Y-122418758D02*
X153033000Y-122418758D01*
X151998000Y-122378758D02*
X152802000Y-122378758D01*
X150561000Y-129119999D02*
X150561000Y-128489999D01*
X150246000Y-128804999D02*
X150876000Y-128804999D01*
D11*
X102806666Y-130872380D02*
X102473333Y-130396190D01*
X102235238Y-130872380D02*
X102235238Y-129872380D01*
X102616190Y-129872380D01*
X102711428Y-129920000D01*
X102759047Y-129967619D01*
X102806666Y-130062857D01*
X102806666Y-130205714D01*
X102759047Y-130300952D01*
X102711428Y-130348571D01*
X102616190Y-130396190D01*
X102235238Y-130396190D01*
X103235238Y-130348571D02*
X103568571Y-130348571D01*
X103711428Y-130872380D02*
X103235238Y-130872380D01*
X103235238Y-129872380D01*
X103711428Y-129872380D01*
X104473333Y-130348571D02*
X104140000Y-130348571D01*
X104140000Y-130872380D02*
X104140000Y-129872380D01*
X104616190Y-129872380D01*
X105140000Y-129872380D02*
X105140000Y-130110476D01*
X104901904Y-130015238D02*
X105140000Y-130110476D01*
X105378095Y-130015238D01*
X104997142Y-130300952D02*
X105140000Y-130110476D01*
X105282857Y-130300952D01*
X105901904Y-129872380D02*
X105901904Y-130110476D01*
X105663809Y-130015238D02*
X105901904Y-130110476D01*
X106140000Y-130015238D01*
X105759047Y-130300952D02*
X105901904Y-130110476D01*
X106044761Y-130300952D01*
X119213333Y-84177142D02*
X119165714Y-84224761D01*
X119022857Y-84272380D01*
X118927619Y-84272380D01*
X118784761Y-84224761D01*
X118689523Y-84129523D01*
X118641904Y-84034285D01*
X118594285Y-83843809D01*
X118594285Y-83700952D01*
X118641904Y-83510476D01*
X118689523Y-83415238D01*
X118784761Y-83320000D01*
X118927619Y-83272380D01*
X119022857Y-83272380D01*
X119165714Y-83320000D01*
X119213333Y-83367619D01*
X120118095Y-83272380D02*
X119641904Y-83272380D01*
X119594285Y-83748571D01*
X119641904Y-83700952D01*
X119737142Y-83653333D01*
X119975238Y-83653333D01*
X120070476Y-83700952D01*
X120118095Y-83748571D01*
X120165714Y-83843809D01*
X120165714Y-84081904D01*
X120118095Y-84177142D01*
X120070476Y-84224761D01*
X119975238Y-84272380D01*
X119737142Y-84272380D01*
X119641904Y-84224761D01*
X119594285Y-84177142D01*
X102052380Y-62396666D02*
X101576190Y-62730000D01*
X102052380Y-62968095D02*
X101052380Y-62968095D01*
X101052380Y-62587142D01*
X101100000Y-62491904D01*
X101147619Y-62444285D01*
X101242857Y-62396666D01*
X101385714Y-62396666D01*
X101480952Y-62444285D01*
X101528571Y-62491904D01*
X101576190Y-62587142D01*
X101576190Y-62968095D01*
X101052380Y-62063333D02*
X101052380Y-61396666D01*
X102052380Y-61825238D01*
X117292380Y-104782857D02*
X116816190Y-105116190D01*
X117292380Y-105354285D02*
X116292380Y-105354285D01*
X116292380Y-104973333D01*
X116340000Y-104878095D01*
X116387619Y-104830476D01*
X116482857Y-104782857D01*
X116625714Y-104782857D01*
X116720952Y-104830476D01*
X116768571Y-104878095D01*
X116816190Y-104973333D01*
X116816190Y-105354285D01*
X116387619Y-104401904D02*
X116340000Y-104354285D01*
X116292380Y-104259047D01*
X116292380Y-104020952D01*
X116340000Y-103925714D01*
X116387619Y-103878095D01*
X116482857Y-103830476D01*
X116578095Y-103830476D01*
X116720952Y-103878095D01*
X117292380Y-104449523D01*
X117292380Y-103830476D01*
X117292380Y-102878095D02*
X117292380Y-103449523D01*
X117292380Y-103163809D02*
X116292380Y-103163809D01*
X116435238Y-103259047D01*
X116530476Y-103354285D01*
X116578095Y-103449523D01*
X102052380Y-78906666D02*
X101576190Y-79240000D01*
X102052380Y-79478095D02*
X101052380Y-79478095D01*
X101052380Y-79097142D01*
X101100000Y-79001904D01*
X101147619Y-78954285D01*
X101242857Y-78906666D01*
X101385714Y-78906666D01*
X101480952Y-78954285D01*
X101528571Y-79001904D01*
X101576190Y-79097142D01*
X101576190Y-79478095D01*
X102052380Y-77954285D02*
X102052380Y-78525714D01*
X102052380Y-78240000D02*
X101052380Y-78240000D01*
X101195238Y-78335238D01*
X101290476Y-78430476D01*
X101338095Y-78525714D01*
X106962380Y-78906666D02*
X106486190Y-79240000D01*
X106962380Y-79478095D02*
X105962380Y-79478095D01*
X105962380Y-79097142D01*
X106010000Y-79001904D01*
X106057619Y-78954285D01*
X106152857Y-78906666D01*
X106295714Y-78906666D01*
X106390952Y-78954285D01*
X106438571Y-79001904D01*
X106486190Y-79097142D01*
X106486190Y-79478095D01*
X106057619Y-78525714D02*
X106010000Y-78478095D01*
X105962380Y-78382857D01*
X105962380Y-78144761D01*
X106010000Y-78049523D01*
X106057619Y-78001904D01*
X106152857Y-77954285D01*
X106248095Y-77954285D01*
X106390952Y-78001904D01*
X106962380Y-78573333D01*
X106962380Y-77954285D01*
X99512380Y-43346666D02*
X99036190Y-43680000D01*
X99512380Y-43918095D02*
X98512380Y-43918095D01*
X98512380Y-43537142D01*
X98560000Y-43441904D01*
X98607619Y-43394285D01*
X98702857Y-43346666D01*
X98845714Y-43346666D01*
X98940952Y-43394285D01*
X98988571Y-43441904D01*
X99036190Y-43537142D01*
X99036190Y-43918095D01*
X98512380Y-43013333D02*
X98512380Y-42394285D01*
X98893333Y-42727619D01*
X98893333Y-42584761D01*
X98940952Y-42489523D01*
X98988571Y-42441904D01*
X99083809Y-42394285D01*
X99321904Y-42394285D01*
X99417142Y-42441904D01*
X99464761Y-42489523D01*
X99512380Y-42584761D01*
X99512380Y-42870476D01*
X99464761Y-42965714D01*
X99417142Y-43013333D01*
X112212380Y-78906666D02*
X111736190Y-79240000D01*
X112212380Y-79478095D02*
X111212380Y-79478095D01*
X111212380Y-79097142D01*
X111260000Y-79001904D01*
X111307619Y-78954285D01*
X111402857Y-78906666D01*
X111545714Y-78906666D01*
X111640952Y-78954285D01*
X111688571Y-79001904D01*
X111736190Y-79097142D01*
X111736190Y-79478095D01*
X111545714Y-78049523D02*
X112212380Y-78049523D01*
X111164761Y-78287619D02*
X111879047Y-78525714D01*
X111879047Y-77906666D01*
X107132380Y-66206666D02*
X106656190Y-66540000D01*
X107132380Y-66778095D02*
X106132380Y-66778095D01*
X106132380Y-66397142D01*
X106180000Y-66301904D01*
X106227619Y-66254285D01*
X106322857Y-66206666D01*
X106465714Y-66206666D01*
X106560952Y-66254285D01*
X106608571Y-66301904D01*
X106656190Y-66397142D01*
X106656190Y-66778095D01*
X106132380Y-65301904D02*
X106132380Y-65778095D01*
X106608571Y-65825714D01*
X106560952Y-65778095D01*
X106513333Y-65682857D01*
X106513333Y-65444761D01*
X106560952Y-65349523D01*
X106608571Y-65301904D01*
X106703809Y-65254285D01*
X106941904Y-65254285D01*
X107037142Y-65301904D01*
X107084761Y-65349523D01*
X107132380Y-65444761D01*
X107132380Y-65682857D01*
X107084761Y-65778095D01*
X107037142Y-65825714D01*
X145232380Y-114466666D02*
X144756190Y-114800000D01*
X145232380Y-115038095D02*
X144232380Y-115038095D01*
X144232380Y-114657142D01*
X144280000Y-114561904D01*
X144327619Y-114514285D01*
X144422857Y-114466666D01*
X144565714Y-114466666D01*
X144660952Y-114514285D01*
X144708571Y-114561904D01*
X144756190Y-114657142D01*
X144756190Y-115038095D01*
X145232380Y-113990476D02*
X145232380Y-113800000D01*
X145184761Y-113704761D01*
X145137142Y-113657142D01*
X144994285Y-113561904D01*
X144803809Y-113514285D01*
X144422857Y-113514285D01*
X144327619Y-113561904D01*
X144280000Y-113609523D01*
X144232380Y-113704761D01*
X144232380Y-113895238D01*
X144280000Y-113990476D01*
X144327619Y-114038095D01*
X144422857Y-114085714D01*
X144660952Y-114085714D01*
X144756190Y-114038095D01*
X144803809Y-113990476D01*
X144851428Y-113895238D01*
X144851428Y-113704761D01*
X144803809Y-113609523D01*
X144756190Y-113561904D01*
X144660952Y-113514285D01*
X150142380Y-114942857D02*
X149666190Y-115276190D01*
X150142380Y-115514285D02*
X149142380Y-115514285D01*
X149142380Y-115133333D01*
X149190000Y-115038095D01*
X149237619Y-114990476D01*
X149332857Y-114942857D01*
X149475714Y-114942857D01*
X149570952Y-114990476D01*
X149618571Y-115038095D01*
X149666190Y-115133333D01*
X149666190Y-115514285D01*
X150142380Y-113990476D02*
X150142380Y-114561904D01*
X150142380Y-114276190D02*
X149142380Y-114276190D01*
X149285238Y-114371428D01*
X149380476Y-114466666D01*
X149428095Y-114561904D01*
X149237619Y-113609523D02*
X149190000Y-113561904D01*
X149142380Y-113466666D01*
X149142380Y-113228571D01*
X149190000Y-113133333D01*
X149237619Y-113085714D01*
X149332857Y-113038095D01*
X149428095Y-113038095D01*
X149570952Y-113085714D01*
X150142380Y-113657142D01*
X150142380Y-113038095D01*
X102052380Y-122562857D02*
X101576190Y-122896190D01*
X102052380Y-123134285D02*
X101052380Y-123134285D01*
X101052380Y-122753333D01*
X101100000Y-122658095D01*
X101147619Y-122610476D01*
X101242857Y-122562857D01*
X101385714Y-122562857D01*
X101480952Y-122610476D01*
X101528571Y-122658095D01*
X101576190Y-122753333D01*
X101576190Y-123134285D01*
X102052380Y-121610476D02*
X102052380Y-122181904D01*
X102052380Y-121896190D02*
X101052380Y-121896190D01*
X101195238Y-121991428D01*
X101290476Y-122086666D01*
X101338095Y-122181904D01*
X101052380Y-121277142D02*
X101052380Y-120658095D01*
X101433333Y-120991428D01*
X101433333Y-120848571D01*
X101480952Y-120753333D01*
X101528571Y-120705714D01*
X101623809Y-120658095D01*
X101861904Y-120658095D01*
X101957142Y-120705714D01*
X102004761Y-120753333D01*
X102052380Y-120848571D01*
X102052380Y-121134285D01*
X102004761Y-121229523D01*
X101957142Y-121277142D01*
X140152380Y-84462857D02*
X139676190Y-84796190D01*
X140152380Y-85034285D02*
X139152380Y-85034285D01*
X139152380Y-84653333D01*
X139200000Y-84558095D01*
X139247619Y-84510476D01*
X139342857Y-84462857D01*
X139485714Y-84462857D01*
X139580952Y-84510476D01*
X139628571Y-84558095D01*
X139676190Y-84653333D01*
X139676190Y-85034285D01*
X140152380Y-83510476D02*
X140152380Y-84081904D01*
X140152380Y-83796190D02*
X139152380Y-83796190D01*
X139295238Y-83891428D01*
X139390476Y-83986666D01*
X139438095Y-84081904D01*
X139152380Y-82653333D02*
X139152380Y-82843809D01*
X139200000Y-82939047D01*
X139247619Y-82986666D01*
X139390476Y-83081904D01*
X139580952Y-83129523D01*
X139961904Y-83129523D01*
X140057142Y-83081904D01*
X140104761Y-83034285D01*
X140152380Y-82939047D01*
X140152380Y-82748571D01*
X140104761Y-82653333D01*
X140057142Y-82605714D01*
X139961904Y-82558095D01*
X139723809Y-82558095D01*
X139628571Y-82605714D01*
X139580952Y-82653333D01*
X139533333Y-82748571D01*
X139533333Y-82939047D01*
X139580952Y-83034285D01*
X139628571Y-83081904D01*
X139723809Y-83129523D01*
X112042380Y-114942857D02*
X111566190Y-115276190D01*
X112042380Y-115514285D02*
X111042380Y-115514285D01*
X111042380Y-115133333D01*
X111090000Y-115038095D01*
X111137619Y-114990476D01*
X111232857Y-114942857D01*
X111375714Y-114942857D01*
X111470952Y-114990476D01*
X111518571Y-115038095D01*
X111566190Y-115133333D01*
X111566190Y-115514285D01*
X112042380Y-113990476D02*
X112042380Y-114561904D01*
X112042380Y-114276190D02*
X111042380Y-114276190D01*
X111185238Y-114371428D01*
X111280476Y-114466666D01*
X111328095Y-114561904D01*
X111042380Y-113657142D02*
X111042380Y-112990476D01*
X112042380Y-113419047D01*
X112042380Y-104782857D02*
X111566190Y-105116190D01*
X112042380Y-105354285D02*
X111042380Y-105354285D01*
X111042380Y-104973333D01*
X111090000Y-104878095D01*
X111137619Y-104830476D01*
X111232857Y-104782857D01*
X111375714Y-104782857D01*
X111470952Y-104830476D01*
X111518571Y-104878095D01*
X111566190Y-104973333D01*
X111566190Y-105354285D01*
X111137619Y-104401904D02*
X111090000Y-104354285D01*
X111042380Y-104259047D01*
X111042380Y-104020952D01*
X111090000Y-103925714D01*
X111137619Y-103878095D01*
X111232857Y-103830476D01*
X111328095Y-103830476D01*
X111470952Y-103878095D01*
X112042380Y-104449523D01*
X112042380Y-103830476D01*
X111042380Y-103211428D02*
X111042380Y-103116190D01*
X111090000Y-103020952D01*
X111137619Y-102973333D01*
X111232857Y-102925714D01*
X111423333Y-102878095D01*
X111661428Y-102878095D01*
X111851904Y-102925714D01*
X111947142Y-102973333D01*
X111994761Y-103020952D01*
X112042380Y-103116190D01*
X112042380Y-103211428D01*
X111994761Y-103306666D01*
X111947142Y-103354285D01*
X111851904Y-103401904D01*
X111661428Y-103449523D01*
X111423333Y-103449523D01*
X111232857Y-103401904D01*
X111137619Y-103354285D01*
X111090000Y-103306666D01*
X111042380Y-103211428D01*
X104767142Y-94262380D02*
X104433809Y-93786190D01*
X104195714Y-94262380D02*
X104195714Y-93262380D01*
X104576666Y-93262380D01*
X104671904Y-93310000D01*
X104719523Y-93357619D01*
X104767142Y-93452857D01*
X104767142Y-93595714D01*
X104719523Y-93690952D01*
X104671904Y-93738571D01*
X104576666Y-93786190D01*
X104195714Y-93786190D01*
X105148095Y-93357619D02*
X105195714Y-93310000D01*
X105290952Y-93262380D01*
X105529047Y-93262380D01*
X105624285Y-93310000D01*
X105671904Y-93357619D01*
X105719523Y-93452857D01*
X105719523Y-93548095D01*
X105671904Y-93690952D01*
X105100476Y-94262380D01*
X105719523Y-94262380D01*
X106100476Y-93357619D02*
X106148095Y-93310000D01*
X106243333Y-93262380D01*
X106481428Y-93262380D01*
X106576666Y-93310000D01*
X106624285Y-93357619D01*
X106671904Y-93452857D01*
X106671904Y-93548095D01*
X106624285Y-93690952D01*
X106052857Y-94262380D01*
X106671904Y-94262380D01*
X135072380Y-84462857D02*
X134596190Y-84796190D01*
X135072380Y-85034285D02*
X134072380Y-85034285D01*
X134072380Y-84653333D01*
X134120000Y-84558095D01*
X134167619Y-84510476D01*
X134262857Y-84462857D01*
X134405714Y-84462857D01*
X134500952Y-84510476D01*
X134548571Y-84558095D01*
X134596190Y-84653333D01*
X134596190Y-85034285D01*
X134167619Y-84081904D02*
X134120000Y-84034285D01*
X134072380Y-83939047D01*
X134072380Y-83700952D01*
X134120000Y-83605714D01*
X134167619Y-83558095D01*
X134262857Y-83510476D01*
X134358095Y-83510476D01*
X134500952Y-83558095D01*
X135072380Y-84129523D01*
X135072380Y-83510476D01*
X134072380Y-83177142D02*
X134072380Y-82558095D01*
X134453333Y-82891428D01*
X134453333Y-82748571D01*
X134500952Y-82653333D01*
X134548571Y-82605714D01*
X134643809Y-82558095D01*
X134881904Y-82558095D01*
X134977142Y-82605714D01*
X135024761Y-82653333D01*
X135072380Y-82748571D01*
X135072380Y-83034285D01*
X135024761Y-83129523D01*
X134977142Y-83177142D01*
X112212380Y-58586666D02*
X111736190Y-58920000D01*
X112212380Y-59158095D02*
X111212380Y-59158095D01*
X111212380Y-58777142D01*
X111260000Y-58681904D01*
X111307619Y-58634285D01*
X111402857Y-58586666D01*
X111545714Y-58586666D01*
X111640952Y-58634285D01*
X111688571Y-58681904D01*
X111736190Y-58777142D01*
X111736190Y-59158095D01*
X111212380Y-57729523D02*
X111212380Y-57920000D01*
X111260000Y-58015238D01*
X111307619Y-58062857D01*
X111450476Y-58158095D01*
X111640952Y-58205714D01*
X112021904Y-58205714D01*
X112117142Y-58158095D01*
X112164761Y-58110476D01*
X112212380Y-58015238D01*
X112212380Y-57824761D01*
X112164761Y-57729523D01*
X112117142Y-57681904D01*
X112021904Y-57634285D01*
X111783809Y-57634285D01*
X111688571Y-57681904D01*
X111640952Y-57729523D01*
X111593333Y-57824761D01*
X111593333Y-58015238D01*
X111640952Y-58110476D01*
X111688571Y-58158095D01*
X111783809Y-58205714D01*
X122547142Y-53962380D02*
X122213809Y-53486190D01*
X121975714Y-53962380D02*
X121975714Y-52962380D01*
X122356666Y-52962380D01*
X122451904Y-53010000D01*
X122499523Y-53057619D01*
X122547142Y-53152857D01*
X122547142Y-53295714D01*
X122499523Y-53390952D01*
X122451904Y-53438571D01*
X122356666Y-53486190D01*
X121975714Y-53486190D01*
X122928095Y-53057619D02*
X122975714Y-53010000D01*
X123070952Y-52962380D01*
X123309047Y-52962380D01*
X123404285Y-53010000D01*
X123451904Y-53057619D01*
X123499523Y-53152857D01*
X123499523Y-53248095D01*
X123451904Y-53390952D01*
X122880476Y-53962380D01*
X123499523Y-53962380D01*
X124404285Y-52962380D02*
X123928095Y-52962380D01*
X123880476Y-53438571D01*
X123928095Y-53390952D01*
X124023333Y-53343333D01*
X124261428Y-53343333D01*
X124356666Y-53390952D01*
X124404285Y-53438571D01*
X124451904Y-53533809D01*
X124451904Y-53771904D01*
X124404285Y-53867142D01*
X124356666Y-53914761D01*
X124261428Y-53962380D01*
X124023333Y-53962380D01*
X123928095Y-53914761D01*
X123880476Y-53867142D01*
X132437142Y-60356666D02*
X132484761Y-60404285D01*
X132532380Y-60547142D01*
X132532380Y-60642380D01*
X132484761Y-60785238D01*
X132389523Y-60880476D01*
X132294285Y-60928095D01*
X132103809Y-60975714D01*
X131960952Y-60975714D01*
X131770476Y-60928095D01*
X131675238Y-60880476D01*
X131580000Y-60785238D01*
X131532380Y-60642380D01*
X131532380Y-60547142D01*
X131580000Y-60404285D01*
X131627619Y-60356666D01*
X132532380Y-59928095D02*
X131532380Y-59928095D01*
X131532380Y-59547142D01*
X131580000Y-59451904D01*
X131627619Y-59404285D01*
X131722857Y-59356666D01*
X131865714Y-59356666D01*
X131960952Y-59404285D01*
X132008571Y-59451904D01*
X132056190Y-59547142D01*
X132056190Y-59928095D01*
X132532380Y-58404285D02*
X132532380Y-58975714D01*
X132532380Y-58690000D02*
X131532380Y-58690000D01*
X131675238Y-58785238D01*
X131770476Y-58880476D01*
X131818095Y-58975714D01*
X135247142Y-122202380D02*
X134913809Y-121726190D01*
X134675714Y-122202380D02*
X134675714Y-121202380D01*
X135056666Y-121202380D01*
X135151904Y-121250000D01*
X135199523Y-121297619D01*
X135247142Y-121392857D01*
X135247142Y-121535714D01*
X135199523Y-121630952D01*
X135151904Y-121678571D01*
X135056666Y-121726190D01*
X134675714Y-121726190D01*
X136199523Y-122202380D02*
X135628095Y-122202380D01*
X135913809Y-122202380D02*
X135913809Y-121202380D01*
X135818571Y-121345238D01*
X135723333Y-121440476D01*
X135628095Y-121488095D01*
X137151904Y-122202380D02*
X136580476Y-122202380D01*
X136866190Y-122202380D02*
X136866190Y-121202380D01*
X136770952Y-121345238D01*
X136675714Y-121440476D01*
X136580476Y-121488095D01*
X107132380Y-104782857D02*
X106656190Y-105116190D01*
X107132380Y-105354285D02*
X106132380Y-105354285D01*
X106132380Y-104973333D01*
X106180000Y-104878095D01*
X106227619Y-104830476D01*
X106322857Y-104782857D01*
X106465714Y-104782857D01*
X106560952Y-104830476D01*
X106608571Y-104878095D01*
X106656190Y-104973333D01*
X106656190Y-105354285D01*
X107132380Y-103830476D02*
X107132380Y-104401904D01*
X107132380Y-104116190D02*
X106132380Y-104116190D01*
X106275238Y-104211428D01*
X106370476Y-104306666D01*
X106418095Y-104401904D01*
X106132380Y-102925714D02*
X106132380Y-103401904D01*
X106608571Y-103449523D01*
X106560952Y-103401904D01*
X106513333Y-103306666D01*
X106513333Y-103068571D01*
X106560952Y-102973333D01*
X106608571Y-102925714D01*
X106703809Y-102878095D01*
X106941904Y-102878095D01*
X107037142Y-102925714D01*
X107084761Y-102973333D01*
X107132380Y-103068571D01*
X107132380Y-103306666D01*
X107084761Y-103401904D01*
X107037142Y-103449523D01*
X102052380Y-104782857D02*
X101576190Y-105116190D01*
X102052380Y-105354285D02*
X101052380Y-105354285D01*
X101052380Y-104973333D01*
X101100000Y-104878095D01*
X101147619Y-104830476D01*
X101242857Y-104782857D01*
X101385714Y-104782857D01*
X101480952Y-104830476D01*
X101528571Y-104878095D01*
X101576190Y-104973333D01*
X101576190Y-105354285D01*
X102052380Y-103830476D02*
X102052380Y-104401904D01*
X102052380Y-104116190D02*
X101052380Y-104116190D01*
X101195238Y-104211428D01*
X101290476Y-104306666D01*
X101338095Y-104401904D01*
X102052380Y-103354285D02*
X102052380Y-103163809D01*
X102004761Y-103068571D01*
X101957142Y-103020952D01*
X101814285Y-102925714D01*
X101623809Y-102878095D01*
X101242857Y-102878095D01*
X101147619Y-102925714D01*
X101100000Y-102973333D01*
X101052380Y-103068571D01*
X101052380Y-103259047D01*
X101100000Y-103354285D01*
X101147619Y-103401904D01*
X101242857Y-103449523D01*
X101480952Y-103449523D01*
X101576190Y-103401904D01*
X101623809Y-103354285D01*
X101671428Y-103259047D01*
X101671428Y-103068571D01*
X101623809Y-102973333D01*
X101576190Y-102925714D01*
X101480952Y-102878095D01*
X155297142Y-99226666D02*
X155344761Y-99274285D01*
X155392380Y-99417142D01*
X155392380Y-99512380D01*
X155344761Y-99655238D01*
X155249523Y-99750476D01*
X155154285Y-99798095D01*
X154963809Y-99845714D01*
X154820952Y-99845714D01*
X154630476Y-99798095D01*
X154535238Y-99750476D01*
X154440000Y-99655238D01*
X154392380Y-99512380D01*
X154392380Y-99417142D01*
X154440000Y-99274285D01*
X154487619Y-99226666D01*
X155392380Y-98274285D02*
X155392380Y-98845714D01*
X155392380Y-98560000D02*
X154392380Y-98560000D01*
X154535238Y-98655238D01*
X154630476Y-98750476D01*
X154678095Y-98845714D01*
X160377142Y-114466666D02*
X160424761Y-114514285D01*
X160472380Y-114657142D01*
X160472380Y-114752380D01*
X160424761Y-114895238D01*
X160329523Y-114990476D01*
X160234285Y-115038095D01*
X160043809Y-115085714D01*
X159900952Y-115085714D01*
X159710476Y-115038095D01*
X159615238Y-114990476D01*
X159520000Y-114895238D01*
X159472380Y-114752380D01*
X159472380Y-114657142D01*
X159520000Y-114514285D01*
X159567619Y-114466666D01*
X159567619Y-114085714D02*
X159520000Y-114038095D01*
X159472380Y-113942857D01*
X159472380Y-113704761D01*
X159520000Y-113609523D01*
X159567619Y-113561904D01*
X159662857Y-113514285D01*
X159758095Y-113514285D01*
X159900952Y-113561904D01*
X160472380Y-114133333D01*
X160472380Y-113514285D01*
X117197142Y-122086666D02*
X117244761Y-122134285D01*
X117292380Y-122277142D01*
X117292380Y-122372380D01*
X117244761Y-122515238D01*
X117149523Y-122610476D01*
X117054285Y-122658095D01*
X116863809Y-122705714D01*
X116720952Y-122705714D01*
X116530476Y-122658095D01*
X116435238Y-122610476D01*
X116340000Y-122515238D01*
X116292380Y-122372380D01*
X116292380Y-122277142D01*
X116340000Y-122134285D01*
X116387619Y-122086666D01*
X116292380Y-121753333D02*
X116292380Y-121134285D01*
X116673333Y-121467619D01*
X116673333Y-121324761D01*
X116720952Y-121229523D01*
X116768571Y-121181904D01*
X116863809Y-121134285D01*
X117101904Y-121134285D01*
X117197142Y-121181904D01*
X117244761Y-121229523D01*
X117292380Y-121324761D01*
X117292380Y-121610476D01*
X117244761Y-121705714D01*
X117197142Y-121753333D01*
X157313333Y-86717142D02*
X157265714Y-86764761D01*
X157122857Y-86812380D01*
X157027619Y-86812380D01*
X156884761Y-86764761D01*
X156789523Y-86669523D01*
X156741904Y-86574285D01*
X156694285Y-86383809D01*
X156694285Y-86240952D01*
X156741904Y-86050476D01*
X156789523Y-85955238D01*
X156884761Y-85860000D01*
X157027619Y-85812380D01*
X157122857Y-85812380D01*
X157265714Y-85860000D01*
X157313333Y-85907619D01*
X158170476Y-86145714D02*
X158170476Y-86812380D01*
X157932380Y-85764761D02*
X157694285Y-86479047D01*
X158313333Y-86479047D01*
X140152380Y-74302857D02*
X139676190Y-74636190D01*
X140152380Y-74874285D02*
X139152380Y-74874285D01*
X139152380Y-74493333D01*
X139200000Y-74398095D01*
X139247619Y-74350476D01*
X139342857Y-74302857D01*
X139485714Y-74302857D01*
X139580952Y-74350476D01*
X139628571Y-74398095D01*
X139676190Y-74493333D01*
X139676190Y-74874285D01*
X139247619Y-73921904D02*
X139200000Y-73874285D01*
X139152380Y-73779047D01*
X139152380Y-73540952D01*
X139200000Y-73445714D01*
X139247619Y-73398095D01*
X139342857Y-73350476D01*
X139438095Y-73350476D01*
X139580952Y-73398095D01*
X140152380Y-73969523D01*
X140152380Y-73350476D01*
X139485714Y-72493333D02*
X140152380Y-72493333D01*
X139104761Y-72731428D02*
X139819047Y-72969523D01*
X139819047Y-72350476D01*
X155392380Y-114466666D02*
X154916190Y-114800000D01*
X155392380Y-115038095D02*
X154392380Y-115038095D01*
X154392380Y-114657142D01*
X154440000Y-114561904D01*
X154487619Y-114514285D01*
X154582857Y-114466666D01*
X154725714Y-114466666D01*
X154820952Y-114514285D01*
X154868571Y-114561904D01*
X154916190Y-114657142D01*
X154916190Y-115038095D01*
X154820952Y-113895238D02*
X154773333Y-113990476D01*
X154725714Y-114038095D01*
X154630476Y-114085714D01*
X154582857Y-114085714D01*
X154487619Y-114038095D01*
X154440000Y-113990476D01*
X154392380Y-113895238D01*
X154392380Y-113704761D01*
X154440000Y-113609523D01*
X154487619Y-113561904D01*
X154582857Y-113514285D01*
X154630476Y-113514285D01*
X154725714Y-113561904D01*
X154773333Y-113609523D01*
X154820952Y-113704761D01*
X154820952Y-113895238D01*
X154868571Y-113990476D01*
X154916190Y-114038095D01*
X155011428Y-114085714D01*
X155201904Y-114085714D01*
X155297142Y-114038095D01*
X155344761Y-113990476D01*
X155392380Y-113895238D01*
X155392380Y-113704761D01*
X155344761Y-113609523D01*
X155297142Y-113561904D01*
X155201904Y-113514285D01*
X155011428Y-113514285D01*
X154916190Y-113561904D01*
X154868571Y-113609523D01*
X154820952Y-113704761D01*
X150312380Y-102242857D02*
X149836190Y-102576190D01*
X150312380Y-102814285D02*
X149312380Y-102814285D01*
X149312380Y-102433333D01*
X149360000Y-102338095D01*
X149407619Y-102290476D01*
X149502857Y-102242857D01*
X149645714Y-102242857D01*
X149740952Y-102290476D01*
X149788571Y-102338095D01*
X149836190Y-102433333D01*
X149836190Y-102814285D01*
X150312380Y-101290476D02*
X150312380Y-101861904D01*
X150312380Y-101576190D02*
X149312380Y-101576190D01*
X149455238Y-101671428D01*
X149550476Y-101766666D01*
X149598095Y-101861904D01*
X149312380Y-100671428D02*
X149312380Y-100576190D01*
X149360000Y-100480952D01*
X149407619Y-100433333D01*
X149502857Y-100385714D01*
X149693333Y-100338095D01*
X149931428Y-100338095D01*
X150121904Y-100385714D01*
X150217142Y-100433333D01*
X150264761Y-100480952D01*
X150312380Y-100576190D01*
X150312380Y-100671428D01*
X150264761Y-100766666D01*
X150217142Y-100814285D01*
X150121904Y-100861904D01*
X149931428Y-100909523D01*
X149693333Y-100909523D01*
X149502857Y-100861904D01*
X149407619Y-100814285D01*
X149360000Y-100766666D01*
X149312380Y-100671428D01*
X145232380Y-102242857D02*
X144756190Y-102576190D01*
X145232380Y-102814285D02*
X144232380Y-102814285D01*
X144232380Y-102433333D01*
X144280000Y-102338095D01*
X144327619Y-102290476D01*
X144422857Y-102242857D01*
X144565714Y-102242857D01*
X144660952Y-102290476D01*
X144708571Y-102338095D01*
X144756190Y-102433333D01*
X144756190Y-102814285D01*
X145232380Y-101290476D02*
X145232380Y-101861904D01*
X145232380Y-101576190D02*
X144232380Y-101576190D01*
X144375238Y-101671428D01*
X144470476Y-101766666D01*
X144518095Y-101861904D01*
X144565714Y-100433333D02*
X145232380Y-100433333D01*
X144184761Y-100671428D02*
X144899047Y-100909523D01*
X144899047Y-100290476D01*
X121277142Y-89522380D02*
X120943809Y-89046190D01*
X120705714Y-89522380D02*
X120705714Y-88522380D01*
X121086666Y-88522380D01*
X121181904Y-88570000D01*
X121229523Y-88617619D01*
X121277142Y-88712857D01*
X121277142Y-88855714D01*
X121229523Y-88950952D01*
X121181904Y-88998571D01*
X121086666Y-89046190D01*
X120705714Y-89046190D01*
X122229523Y-89522380D02*
X121658095Y-89522380D01*
X121943809Y-89522380D02*
X121943809Y-88522380D01*
X121848571Y-88665238D01*
X121753333Y-88760476D01*
X121658095Y-88808095D01*
X122800952Y-88950952D02*
X122705714Y-88903333D01*
X122658095Y-88855714D01*
X122610476Y-88760476D01*
X122610476Y-88712857D01*
X122658095Y-88617619D01*
X122705714Y-88570000D01*
X122800952Y-88522380D01*
X122991428Y-88522380D01*
X123086666Y-88570000D01*
X123134285Y-88617619D01*
X123181904Y-88712857D01*
X123181904Y-88760476D01*
X123134285Y-88855714D01*
X123086666Y-88903333D01*
X122991428Y-88950952D01*
X122800952Y-88950952D01*
X122705714Y-88998571D01*
X122658095Y-89046190D01*
X122610476Y-89141428D01*
X122610476Y-89331904D01*
X122658095Y-89427142D01*
X122705714Y-89474761D01*
X122800952Y-89522380D01*
X122991428Y-89522380D01*
X123086666Y-89474761D01*
X123134285Y-89427142D01*
X123181904Y-89331904D01*
X123181904Y-89141428D01*
X123134285Y-89046190D01*
X123086666Y-88998571D01*
X122991428Y-88950952D01*
X165341666Y-121642380D02*
X165341666Y-122356666D01*
X165294047Y-122499523D01*
X165198809Y-122594761D01*
X165055952Y-122642380D01*
X164960714Y-122642380D01*
X166341666Y-122642380D02*
X165770238Y-122642380D01*
X166055952Y-122642380D02*
X166055952Y-121642380D01*
X165960714Y-121785238D01*
X165865476Y-121880476D01*
X165770238Y-121928095D01*
X98726666Y-63162380D02*
X98726666Y-63876666D01*
X98679047Y-64019523D01*
X98583809Y-64114761D01*
X98440952Y-64162380D01*
X98345714Y-64162380D01*
X99155238Y-63257619D02*
X99202857Y-63210000D01*
X99298095Y-63162380D01*
X99536190Y-63162380D01*
X99631428Y-63210000D01*
X99679047Y-63257619D01*
X99726666Y-63352857D01*
X99726666Y-63448095D01*
X99679047Y-63590952D01*
X99107619Y-64162380D01*
X99726666Y-64162380D01*
X152066666Y-98722380D02*
X152066666Y-99436666D01*
X152019047Y-99579523D01*
X151923809Y-99674761D01*
X151780952Y-99722380D01*
X151685714Y-99722380D01*
X152447619Y-98722380D02*
X153066666Y-98722380D01*
X152733333Y-99103333D01*
X152876190Y-99103333D01*
X152971428Y-99150952D01*
X153019047Y-99198571D01*
X153066666Y-99293809D01*
X153066666Y-99531904D01*
X153019047Y-99627142D01*
X152971428Y-99674761D01*
X152876190Y-99722380D01*
X152590476Y-99722380D01*
X152495238Y-99674761D01*
X152447619Y-99627142D01*
X98726666Y-106342380D02*
X98726666Y-107056666D01*
X98679047Y-107199523D01*
X98583809Y-107294761D01*
X98440952Y-107342380D01*
X98345714Y-107342380D01*
X99631428Y-106675714D02*
X99631428Y-107342380D01*
X99393333Y-106294761D02*
X99155238Y-107009047D01*
X99774285Y-107009047D01*
X113966666Y-47922380D02*
X113966666Y-48636666D01*
X113919047Y-48779523D01*
X113823809Y-48874761D01*
X113680952Y-48922380D01*
X113585714Y-48922380D01*
X114919047Y-47922380D02*
X114442857Y-47922380D01*
X114395238Y-48398571D01*
X114442857Y-48350952D01*
X114538095Y-48303333D01*
X114776190Y-48303333D01*
X114871428Y-48350952D01*
X114919047Y-48398571D01*
X114966666Y-48493809D01*
X114966666Y-48731904D01*
X114919047Y-48827142D01*
X114871428Y-48874761D01*
X114776190Y-48922380D01*
X114538095Y-48922380D01*
X114442857Y-48874761D01*
X114395238Y-48827142D01*
X122428095Y-58082380D02*
X122428095Y-58891904D01*
X122475714Y-58987142D01*
X122523333Y-59034761D01*
X122618571Y-59082380D01*
X122809047Y-59082380D01*
X122904285Y-59034761D01*
X122951904Y-58987142D01*
X122999523Y-58891904D01*
X122999523Y-58082380D01*
X123999523Y-59082380D02*
X123428095Y-59082380D01*
X123713809Y-59082380D02*
X123713809Y-58082380D01*
X123618571Y-58225238D01*
X123523333Y-58320476D01*
X123428095Y-58368095D01*
X128778095Y-115852380D02*
X128778095Y-116661904D01*
X128825714Y-116757142D01*
X128873333Y-116804761D01*
X128968571Y-116852380D01*
X129159047Y-116852380D01*
X129254285Y-116804761D01*
X129301904Y-116757142D01*
X129349523Y-116661904D01*
X129349523Y-115852380D01*
X129778095Y-115947619D02*
X129825714Y-115900000D01*
X129920952Y-115852380D01*
X130159047Y-115852380D01*
X130254285Y-115900000D01*
X130301904Y-115947619D01*
X130349523Y-116042857D01*
X130349523Y-116138095D01*
X130301904Y-116280952D01*
X129730476Y-116852380D01*
X130349523Y-116852380D01*
X92670476Y-79072380D02*
X93003809Y-80072380D01*
X93337142Y-79072380D01*
X94241904Y-80072380D02*
X93908571Y-79596190D01*
X93670476Y-80072380D02*
X93670476Y-79072380D01*
X94051428Y-79072380D01*
X94146666Y-79120000D01*
X94194285Y-79167619D01*
X94241904Y-79262857D01*
X94241904Y-79405714D01*
X94194285Y-79500952D01*
X94146666Y-79548571D01*
X94051428Y-79596190D01*
X93670476Y-79596190D01*
X95194285Y-80072380D02*
X94622857Y-80072380D01*
X94908571Y-80072380D02*
X94908571Y-79072380D01*
X94813333Y-79215238D01*
X94718095Y-79310476D01*
X94622857Y-79358095D01*
X92670476Y-53672380D02*
X93003809Y-54672380D01*
X93337142Y-53672380D01*
X94241904Y-54672380D02*
X93908571Y-54196190D01*
X93670476Y-54672380D02*
X93670476Y-53672380D01*
X94051428Y-53672380D01*
X94146666Y-53720000D01*
X94194285Y-53767619D01*
X94241904Y-53862857D01*
X94241904Y-54005714D01*
X94194285Y-54100952D01*
X94146666Y-54148571D01*
X94051428Y-54196190D01*
X93670476Y-54196190D01*
X94622857Y-53767619D02*
X94670476Y-53720000D01*
X94765714Y-53672380D01*
X95003809Y-53672380D01*
X95099047Y-53720000D01*
X95146666Y-53767619D01*
X95194285Y-53862857D01*
X95194285Y-53958095D01*
X95146666Y-54100952D01*
X94575238Y-54672380D01*
X95194285Y-54672380D01*
X92670476Y-122252380D02*
X93003809Y-123252380D01*
X93337142Y-122252380D01*
X94241904Y-123252380D02*
X93908571Y-122776190D01*
X93670476Y-123252380D02*
X93670476Y-122252380D01*
X94051428Y-122252380D01*
X94146666Y-122300000D01*
X94194285Y-122347619D01*
X94241904Y-122442857D01*
X94241904Y-122585714D01*
X94194285Y-122680952D01*
X94146666Y-122728571D01*
X94051428Y-122776190D01*
X93670476Y-122776190D01*
X94575238Y-122252380D02*
X95194285Y-122252380D01*
X94860952Y-122633333D01*
X95003809Y-122633333D01*
X95099047Y-122680952D01*
X95146666Y-122728571D01*
X95194285Y-122823809D01*
X95194285Y-123061904D01*
X95146666Y-123157142D01*
X95099047Y-123204761D01*
X95003809Y-123252380D01*
X94718095Y-123252380D01*
X94622857Y-123204761D01*
X94575238Y-123157142D01*
X92670476Y-101932380D02*
X93003809Y-102932380D01*
X93337142Y-101932380D01*
X94241904Y-102932380D02*
X93908571Y-102456190D01*
X93670476Y-102932380D02*
X93670476Y-101932380D01*
X94051428Y-101932380D01*
X94146666Y-101980000D01*
X94194285Y-102027619D01*
X94241904Y-102122857D01*
X94241904Y-102265714D01*
X94194285Y-102360952D01*
X94146666Y-102408571D01*
X94051428Y-102456190D01*
X93670476Y-102456190D01*
X95099047Y-102265714D02*
X95099047Y-102932380D01*
X94860952Y-101884761D02*
X94622857Y-102599047D01*
X95241904Y-102599047D01*
X148357142Y-133536666D02*
X148404761Y-133584285D01*
X148452380Y-133727142D01*
X148452380Y-133822380D01*
X148404761Y-133965238D01*
X148309523Y-134060476D01*
X148214285Y-134108095D01*
X148023809Y-134155714D01*
X147880952Y-134155714D01*
X147690476Y-134108095D01*
X147595238Y-134060476D01*
X147500000Y-133965238D01*
X147452380Y-133822380D01*
X147452380Y-133727142D01*
X147500000Y-133584285D01*
X147547619Y-133536666D01*
X147452380Y-132679523D02*
X147452380Y-132870000D01*
X147500000Y-132965238D01*
X147547619Y-133012857D01*
X147690476Y-133108095D01*
X147880952Y-133155714D01*
X148261904Y-133155714D01*
X148357142Y-133108095D01*
X148404761Y-133060476D01*
X148452380Y-132965238D01*
X148452380Y-132774761D01*
X148404761Y-132679523D01*
X148357142Y-132631904D01*
X148261904Y-132584285D01*
X148023809Y-132584285D01*
X147928571Y-132631904D01*
X147880952Y-132679523D01*
X147833333Y-132774761D01*
X147833333Y-132965238D01*
X147880952Y-133060476D01*
X147928571Y-133108095D01*
X148023809Y-133155714D01*
X148357142Y-125786424D02*
X148404761Y-125834043D01*
X148452380Y-125976900D01*
X148452380Y-126072138D01*
X148404761Y-126214996D01*
X148309523Y-126310234D01*
X148214285Y-126357853D01*
X148023809Y-126405472D01*
X147880952Y-126405472D01*
X147690476Y-126357853D01*
X147595238Y-126310234D01*
X147500000Y-126214996D01*
X147452380Y-126072138D01*
X147452380Y-125976900D01*
X147500000Y-125834043D01*
X147547619Y-125786424D01*
X147452380Y-125453091D02*
X147452380Y-124786424D01*
X148452380Y-125214996D01*
%LPC*%
D12*
X104140000Y-134620000D03*
D13*
X119380000Y-81280000D03*
D14*
X126880000Y-81280000D03*
D13*
X104140000Y-58420000D03*
D14*
X104140000Y-66040000D03*
D13*
X114300000Y-104140000D03*
D14*
X114300000Y-96520000D03*
X99060000Y-71120000D03*
D13*
X99060000Y-78740000D03*
X104140000Y-71120000D03*
D14*
X104140000Y-78740000D03*
D13*
X99060000Y-53340000D03*
D14*
X99060000Y-45720000D03*
X109220000Y-71120000D03*
D13*
X109220000Y-78740000D03*
X109220000Y-58420000D03*
D14*
X109220000Y-66040000D03*
D13*
X142240000Y-106680000D03*
D14*
X142240000Y-114300000D03*
X147320000Y-114300000D03*
D13*
X147320000Y-106680000D03*
X99060000Y-121920000D03*
D14*
X99060000Y-114300000D03*
X137160000Y-76200000D03*
D13*
X137160000Y-83820000D03*
X109220000Y-106680000D03*
D14*
X109220000Y-114300000D03*
D13*
X109220000Y-96520000D03*
D14*
X109220000Y-104140000D03*
D13*
X109220000Y-91440000D03*
D14*
X101600000Y-91440000D03*
X132080000Y-76200000D03*
D13*
X132080000Y-83820000D03*
D14*
X114300000Y-66040000D03*
D13*
X114300000Y-58420000D03*
X119380000Y-55880000D03*
D14*
X127000000Y-55880000D03*
D15*
X132080000Y-63500000D03*
D13*
X132080000Y-66000000D03*
D14*
X132080000Y-119380000D03*
D13*
X139700000Y-119380000D03*
X104140000Y-104140000D03*
D14*
X104140000Y-96520000D03*
X99060000Y-96520000D03*
D13*
X99060000Y-104140000D03*
D14*
X157480000Y-94100000D03*
D13*
X157480000Y-101600000D03*
X157480000Y-106680000D03*
D14*
X157480000Y-114180000D03*
X114300000Y-121800000D03*
D13*
X114300000Y-114300000D03*
X149860000Y-88900000D03*
D14*
X157360000Y-88900000D03*
X137160000Y-73660000D03*
D13*
X137160000Y-66040000D03*
D14*
X152400000Y-106680000D03*
D13*
X152400000Y-114300000D03*
X147320000Y-101600000D03*
D14*
X147320000Y-93980000D03*
X142240000Y-101600000D03*
D13*
X142240000Y-93980000D03*
D14*
X129540000Y-91440000D03*
D13*
X121920000Y-91440000D03*
D16*
X160020000Y-124460000D03*
D17*
X162560000Y-124460000D03*
X160020000Y-127000000D03*
X162560000Y-127000000D03*
X160020000Y-129540000D03*
X162560000Y-129540000D03*
X160020000Y-132080000D03*
X162560000Y-132080000D03*
X160020000Y-134620000D03*
X162560000Y-134620000D03*
D16*
X99060000Y-66040000D03*
X152400000Y-101600000D03*
X99060000Y-109220000D03*
X114300000Y-50800000D03*
D15*
X119380000Y-60960000D03*
D14*
X127000000Y-76200000D03*
X119380000Y-63500000D03*
X127000000Y-73660000D03*
X119380000Y-66040000D03*
X127000000Y-71120000D03*
X119380000Y-68580000D03*
X127000000Y-68580000D03*
X119380000Y-71120000D03*
X127000000Y-66040000D03*
X119380000Y-73660000D03*
X127000000Y-63500000D03*
X119380000Y-76200000D03*
X127000000Y-60960000D03*
D18*
X120650000Y-114300000D03*
X138430000Y-114300000D03*
X120650000Y-111760000D03*
X138430000Y-111760000D03*
X120650000Y-109220000D03*
X138430000Y-109220000D03*
X120650000Y-106680000D03*
X138430000Y-106680000D03*
X120650000Y-104140000D03*
X138430000Y-104140000D03*
X120650000Y-101600000D03*
X138430000Y-101600000D03*
X120650000Y-99060000D03*
X138430000Y-99060000D03*
X120650000Y-96520000D03*
X138430000Y-96520000D03*
X120650000Y-93980000D03*
X138430000Y-93980000D03*
D19*
X93980000Y-71120000D03*
X93980000Y-73620000D03*
X93980000Y-76120000D03*
X93980000Y-50720000D03*
X93980000Y-48220000D03*
X93980000Y-45720000D03*
X93980000Y-119300000D03*
X93980000Y-116800000D03*
X93980000Y-114300000D03*
X93980000Y-93980000D03*
X93980000Y-96480000D03*
X93980000Y-98980000D03*
D15*
X152400000Y-134620000D03*
D13*
X152400000Y-132120000D03*
X152400000Y-124369758D03*
D15*
X152400000Y-126869758D03*
M02*
